<?xml version="1.0" encoding="utf-8" ?><svg xmlns="http://www.w3.org/2000/svg" xmlns:xlink="http://www.w3.org/1999/xlink" width="2000" height="2000" viewBox="0 0 2000 2000"><path fill="#010A48" d="M0 0L2000 0L2000 2000L0 2000L0 0Z"/><path fill="#E1C341" d="M994.245 200.198C997.291 200.172 1003.1 200.091 1004.06 203.336C1006.59 211.941 1005.81 226.85 1006.01 235.575C1007.02 272.118 1010.61 308.544 1016.77 344.58C1038.45 473.005 1090.79 594.303 1169.36 698.183C1293.59 862.476 1475.41 973.645 1678.27 1009.33C1709.94 1014.75 1741.9 1018.34 1773.98 1020.08C1788.97 1020.92 1803.81 1020.85 1818.7 1021.5C1821.63 1021.63 1824.12 1023.07 1825.92 1025.49C1826.56 1029.06 1826.82 1029.09 1825.36 1032.54C1823.2 1034.77 1820.27 1036.81 1817.13 1036.82C1784.62 1036.94 1752.4 1038.85 1720.06 1042.79C1375.96 1085.38 1096.42 1340.9 1023.16 1679.8C1013.44 1724.71 1007.65 1770.39 1005.86 1816.32C1005.46 1827.38 1007.58 1850.2 1002.01 1857.33C999.252 1857.44 996.392 1857.83 993.867 1856.52C988.241 1853.62 989.182 1816.83 988.872 1809.54C984.85 1722.51 966.701 1636.71 935.135 1555.51C833.003 1293.33 602.882 1102.35 326.368 1050.3C288.835 1043.48 250.88 1039.21 212.768 1037.54C203.151 1037.16 182.729 1037.79 172.932 1035.66C171.365 1035.32 169.305 1032.3 168.997 1030.04C168.668 1027.77 169.422 1025.48 171.032 1023.85C174.916 1019.94 199.4 1020.89 206.548 1020.66C569.431 1007.6 879.666 755.51 966.707 402.978C974.674 370.433 980.687 337.44 984.714 304.176C986.977 283.908 988.522 263.566 989.347 243.189C989.785 231.134 989.936 218.591 990.619 206.53C990.766 203.927 992.522 202.033 994.245 200.198Z"/><path fill="#010A48" d="M997.607 324.055C998.85 326.185 1005.45 367.01 1006.58 372.631C1009.57 387.576 1012.94 402.444 1016.68 417.219C1040.17 507.558 1078.82 593.253 1130.99 670.653C1235.17 825.011 1388.08 939.987 1565.3 997.2C1592.72 1005.9 1620.56 1013.22 1648.72 1019.12C1667.8 1023.02 1686.22 1025.7 1705.16 1029.31C1686.62 1031.36 1664.52 1035.74 1646.28 1039.56C1525.47 1065.27 1411.97 1117.78 1314.15 1193.2C1146.44 1322.89 1025.13 1521.15 998.245 1732.48L997.402 1732.37C994.822 1721.3 993.092 1708.06 991.027 1696.68C987.699 1678.88 983.834 1661.17 979.436 1643.6C951.814 1535.95 902.736 1434.98 835.147 1346.76C702.785 1173.19 507.092 1059.07 290.841 1029.35C301.357 1026.93 315.338 1025.06 326.279 1023.06C345.079 1019.54 363.771 1015.47 382.333 1010.85C484.046 984.892 579.876 939.771 664.686 877.909C811.453 770.845 919.115 618.659 971.211 444.621C983.497 403.397 990.919 366.344 997.607 324.055Z"/><path fill="#E1C341" d="M402.543 1028.73C411.895 1027.36 424.164 1026.82 433.897 1025.87C451.037 1024.26 468.1 1021.92 485.038 1018.84C593.24 999.249 694.3 951.279 777.888 879.834C884.365 789.392 957.42 665.841 985.361 528.96C992.587 493.123 994.745 466.527 997.526 430.534C1001.36 461.365 1001.67 483.939 1007.52 516.555C1028.37 631.945 1081.5 739.063 1160.74 825.489C1266.74 942.261 1423.33 1020.02 1581.43 1027.5L1582.04 1028.83L1579.11 1030.32C1557.47 1030.62 1520.48 1036.42 1499.29 1040.65C1375.19 1065.44 1261.58 1127.42 1173.57 1218.36C1085.54 1308.75 1027.06 1423.76 1005.88 1548.14C1002.31 1569.3 997.594 1601.54 998.004 1622.82L996.092 1620C996.516 1604.78 992.083 1570.33 989.683 1555.02C972.206 1443.81 924.792 1339.45 852.522 1253.13C762.71 1145.13 639.03 1070.66 501.562 1041.81C466.133 1034.42 437.761 1031.87 401.983 1028.75L402.543 1028.73Z"/><path fill="#917C49" d="M1581.43 1027.5C1587.91 1027.61 1594.27 1028.21 1600.73 1028.74C1593.58 1029.53 1586.3 1029.89 1579.11 1030.32L1582.04 1028.83L1581.43 1027.5Z"/><path fill="#675C49" d="M996.092 1620L998.004 1622.82C998.199 1626.63 998.095 1628.72 997.843 1632.55L997.145 1632.84C995.679 1628.06 996.037 1624.98 996.092 1620Z"/></svg>