<?xml version="1.0" encoding="UTF-8" standalone="no"?>
<svg
   version="1.1"
   id="Layer_1"
   x="0px"
   y="0px"
   width="100%"
   viewBox="0 0 500 500"
   enable-background="new 0 0 500 500"
   xml:space="preserve"
   sodipodi:docname="N_E_V_A_R_A__3_-removebg.svg"
   inkscape:version="1.4.2 (f4327f4, 2025-05-13)"
   xmlns:inkscape="http://www.inkscape.org/namespaces/inkscape"
   xmlns:sodipodi="http://sodipodi.sourceforge.net/DTD/sodipodi-0.dtd"
   xmlns="http://www.w3.org/2000/svg"
   xmlns:svg="http://www.w3.org/2000/svg"><defs
   id="defs182" /><sodipodi:namedview
   id="namedview182"
   pagecolor="#ffffff"
   bordercolor="#000000"
   borderopacity="0.25"
   inkscape:showpageshadow="2"
   inkscape:pageopacity="0.0"
   inkscape:pagecheckerboard="0"
   inkscape:deskcolor="#d1d1d1"
   showgrid="false"
   inkscape:zoom="1.538"
   inkscape:cx="250"
   inkscape:cy="250"
   inkscape:window-width="1920"
   inkscape:window-height="986"
   inkscape:window-x="-11"
   inkscape:window-y="-11"
   inkscape:window-maximized="1"
   inkscape:current-layer="Layer_1" />

<path
   fill="#e3c155"
   opacity="1"
   stroke="none"
   d="m 254.72626,84.035355 c 5.17239,32.447225 16.95431,62.168195 37.0794,88.284695 30.63379,39.75374 70.51276,64.71855 120.05747,73.55243 10.36807,1.84862 21.01816,2.09506 31.52362,3.21724 1.42551,0.15228 2.76498,1.10997 4.14432,1.69473 -1.40812,0.72678 -2.80228,2.05994 -4.22629,2.09259 -47.81568,1.09649 -89.66364,17.45237 -125.95777,48.70139 -0.33203,-1.01456 -0.38061,-1.86536 -0.4338,-3.03223 -0.0172,-0.52752 -0.0298,-0.73895 0.1192,-1.22989 27.13284,-23.68688 58.46204,-38.29745 93.4458,-46.14825 -1.55234,-1.36729 -2.95291,-1.87486 -4.39474,-2.19946 -61.1352,-13.76311 -106.41455,-48.34929 -135.75956,-103.67038 -8.38488,-15.80718 -13.91659,-32.70342 -17.4582,-50.243349 -0.44696,-2.213547 -0.61614,-5.044991 -3.76429,-2.232865 -0.0297,-2.073128 -0.0297,-3.743454 -0.0297,-6.163231 1.51881,1.808525 2.37297,2.825631 3.81392,4.541436 0.75391,-2.934594 1.29729,-5.049729 1.84067,-7.164856 M 435.4422,252.02815 h 9.28775 c -0.0261,-0.45404 -0.0521,-0.90808 -0.0782,-1.36212 -7.60684,-1.6747 -26.88671,-1.28954 -29.60165,1.35631 6.995,0 13.21152,0 20.39206,0.006 z"
   id="path2"
   sodipodi:nodetypes="cssscscccccssccccccccc"
   style="fill:#fccf07;fill-opacity:0.96706587" />
<path
   fill="#E3C155"
   opacity="1.000000"
   stroke="none"
   d=" M78.957703,254.004593   C71.445427,253.640961 63.929218,253.335831 56.426460,252.830826   C55.599098,252.775131 54.848740,251.575378 54.062660,250.906219   C55.230030,250.286011 56.352726,249.240097 57.571777,249.112106   C68.552849,247.959396 79.654045,247.595123 90.523781,245.806854   C119.005905,241.121048 144.858688,229.839600 168.349167,213.100311   C170.207047,211.776382 172.109131,210.514481 174.656693,209.050690   C175.856110,208.884857 176.389526,208.892075 177.209564,208.951965   C177.687469,209.038879 177.878723,209.073090 178.080475,209.375488   C178.108887,209.822601 178.126770,210.001556 178.127838,210.146179   C178.110992,210.111847 178.186798,210.101807 177.971466,210.223511   C177.482193,210.536118 177.253448,210.771011 177.057602,211.041458   C177.045319,211.033020 177.081406,211.059601 176.786301,211.121613   C176.107864,211.611938 175.724548,212.040253 175.325958,212.404999   C175.310699,212.341400 175.441376,212.335480 175.169922,212.433929   C174.636398,212.805969 174.374313,213.079559 173.932724,213.625122   C148.985001,232.572906 121.013680,244.181534 90.699821,250.886047   C92.145966,252.097427 93.358543,252.461334 94.563873,252.847824   C108.913383,257.449066 123.741035,260.943359 137.511658,266.886566   C167.014160,279.619415 191.516541,299.242523 210.770645,324.972229   C209.858902,325.783142 209.272263,326.468872 208.685623,327.154633   C195.674347,312.047455 181.781296,297.917755 165.172562,286.642181   C139.749542,269.382721 111.902267,258.576996 81.395081,254.222931   C82.233688,253.596924 83.103760,253.321762 84.148483,253.210785   C84.762642,253.497131 85.202126,253.619263 85.641609,253.741409   C85.682320,253.555756 85.723030,253.370102 85.763741,253.184433   C85.195305,253.102890 84.626877,253.021332 84.264946,252.751007   C84.953949,252.003357 85.436455,251.444519 85.918961,250.885681   C84.445587,250.309692 82.968208,249.236572 81.499565,249.248398   C76.556053,249.288223 71.613319,249.680267 66.676163,250.022369   C65.744720,250.086914 64.840233,250.540527 63.923309,250.814621   C63.977863,251.221466 64.032417,251.628296 64.086975,252.035141   C67.517189,252.035141 70.964417,251.834961 74.370056,252.124283   C75.941177,252.257751 77.431007,253.348114 78.957703,254.004593  z"
   id="path3"
   style="fill:#fccf07;fill-opacity:0.96706587" />
<path
   fill="#E4C151"
   opacity="1.000000"
   stroke="none"
   d=" M316.917847,298.862274   C316.966400,299.713074 317.014984,300.563873 317.028229,301.685547   C316.500244,302.527069 316.007599,303.097748 315.124146,303.728119   C314.439087,303.856049 314.327057,304.054413 314.397217,304.382935   C314.397217,304.382935 314.245575,304.213623 314.059509,304.309631   C313.176697,305.238342 312.479950,306.071014 311.783173,306.903687   C299.304199,319.371979 288.382385,333.063293 279.398865,348.264587   C266.223053,370.559814 257.877228,394.559845 254.578354,420.232452   C253.562912,428.134735 253.427322,436.150055 252.501007,444.597656   C251.408478,443.958984 250.158447,442.865784 250.095871,441.708405   C249.856552,437.281586 249.999115,432.834106 249.999115,427.096924   C249.055862,428.822845 248.825516,429.244324 248.595184,429.665802   C248.397919,428.364899 248.200684,427.063965 248.241135,425.137451   C248.232864,423.339600 247.986923,422.167328 247.740967,420.995056   C247.573883,420.548462 247.406784,420.101837 247.440002,418.968018   C247.076004,415.372101 246.511703,412.463440 245.947388,409.554779   C245.720444,408.912170 245.493484,408.269592 245.434509,407.025330   C245.227005,405.292908 244.851517,404.162170 244.476028,403.031433   C244.308624,402.591919 244.141220,402.152405 244.197144,401.109009   C243.909882,399.016998 243.399292,397.528809 242.888687,396.040649   C242.888687,396.040649 242.959946,396.051117 242.953445,395.698730   C242.546524,394.210266 242.146088,393.074188 241.745667,391.938080   C241.745667,391.938080 241.686630,391.845062 241.732147,391.424744   C241.476929,390.323517 241.176163,389.642578 240.875397,388.961639   C240.603363,388.484680 240.331314,388.007690 240.229980,387.062622   C240.143250,386.130585 239.885834,385.666718 239.628418,385.202820   C239.628418,385.202820 239.727325,385.210114 239.768127,384.928589   C239.353577,383.773499 238.898239,382.899902 238.442902,382.026337   C238.328186,381.867279 238.213470,381.708221 238.262756,381.014008   C237.855515,379.292908 237.284256,378.106964 236.712997,376.920990   C236.712997,376.920990 236.708481,376.815582 236.676849,376.483093   C236.416473,375.765381 236.187729,375.380188 235.958984,374.994995   C235.958984,374.994995 235.747604,374.840332 235.828644,374.385925   C236.699310,373.256866 237.488922,372.582245 238.503113,372.076172   C238.836655,372.784790 238.945618,373.324890 239.061768,374.225220   C239.473984,375.415619 239.879013,376.245728 240.525574,377.311462   C241.459152,379.703766 242.151184,381.860504 242.709625,384.209290   C242.810928,384.881531 243.045837,385.361725 243.234924,385.855591   C243.189102,385.869293 243.229996,385.782806 243.193298,386.134033   C243.512558,387.298920 243.868530,388.112549 244.416199,389.049194   C244.821930,389.431427 244.872070,389.719208 244.632996,390.228394   C244.708755,390.929810 244.909836,391.438385 245.072723,391.966553   C245.034500,391.986145 245.078232,391.912231 245.064087,392.285553   C245.423233,393.781921 245.796524,394.904968 246.233353,396.095306   C246.296890,396.162598 246.174210,396.301178 246.179138,396.665894   C246.451233,397.689911 246.718430,398.349182 247.088287,399.156189   C247.190948,399.303955 247.105225,399.653442 247.083557,400.076294   C247.489365,402.023834 247.916824,403.548553 248.362457,405.136597   C248.380615,405.199951 248.257538,405.247040 248.201233,405.653320   C248.656921,407.646667 249.168930,409.233765 250.082535,410.920319   C251.261154,409.743011 252.372849,408.559692 252.759598,407.174011   C254.900375,399.503540 256.477509,391.656555 258.960541,384.104370   C267.044098,359.518188 279.360260,337.273407 296.987885,317.767273   C297.830078,316.886322 298.349731,316.143402 298.871948,315.251953   C298.973236,314.896515 299.136475,314.806396 299.663696,314.702667   C300.311188,314.043610 300.659210,313.514893 301.100891,312.715637   C301.758209,311.945679 302.321808,311.446259 303.107361,310.817749   C303.544647,310.424316 303.760010,310.159912 303.978546,309.937134   C303.981720,309.978699 303.898468,309.983459 304.116760,309.830750   C304.538269,309.390503 304.741516,309.102966 305.087280,308.521149   C307.813293,305.819458 310.396729,303.412079 313.268372,300.926392   C313.916809,300.405914 314.277100,299.963806 314.646118,299.572571   C314.654846,299.623474 314.552063,299.613098 314.806824,299.526062   C315.285675,299.165466 315.509735,298.891968 315.694397,298.716553   C315.654968,298.814667 315.706238,298.608032 316.005615,298.688232   C316.509277,298.799683 316.713562,298.830994 316.917847,298.862274  M252.123672,414.673615   C251.906830,413.961578 251.689987,413.249542 251.473145,412.537506   C250.770844,413.145294 250.068542,413.753082 249.366257,414.360870   C250.124252,414.588043 250.882233,414.815247 252.123672,414.673615  z"
   id="path4"
   style="fill:#fccf07;fill-opacity:0.96706587" />
<path
   fill="#E4C350"
   opacity="1"
   stroke="none"
   d="m 178.06998,209.10731 c -0.19126,-0.0342 -0.38251,-0.0684 -0.68346,-0.41905 0.31039,-1.26207 0.7305,-2.20775 1.15059,-3.15342 0,0 0.39043,0.0643 0.45569,-0.0217 0.29976,-0.35011 0.53425,-0.61415 0.76877,-0.87819 0,0 1.6e-4,0.13822 0.17941,0.0621 0.73826,-0.6902 1.29729,-1.30429 1.85631,-1.91837 12.54298,-10.97373 23.67952,-23.22918 33.1054,-36.97146 21.95612,-32.01042 33.33919,-67.452881 34.13138,-106.278161 0.0136,-0.66616 -0.17781,-1.410904 0.0579,-1.9822 0.45057,-1.091912 1.14023,-2.085163 1.73064,-3.11937 0.70542,1.094483 1.55751,2.126404 2.06102,3.306992 0.30046,0.70451 0.054,1.642254 -0.2075,3.243107 0.22032,5.847919 0.70158,10.927875 1.18284,16.007831 0.0581,0.166382 0.11626,0.332764 -0.0728,1.018105 0.003,1.638977 0.25225,2.758987 0.50196,3.878998 0.17929,0.52967 0.35859,1.059341 0.48799,1.870956 -0.59329,2.397064 -1.13667,4.512199 -1.89058,7.446793 -1.44095,-1.715805 -2.29511,-2.732911 -3.81392,-4.541436 0,2.419777 0,4.090103 0.0595,6.567971 -1.96491,8.671564 -3.57706,16.669984 -6.08916,24.374984 -8.33182,25.55495 -21.1698,48.58669 -39.74118,68.60869 -0.51893,0.53218 -0.76454,0.88646 -1.00326,1.16568 0.007,-0.0751 0.15319,-0.0386 -0.12571,0.0651 -0.58094,0.59183 -0.88298,1.08003 -1.28694,1.83496 -0.6698,0.75745 -1.23765,1.2482 -2.11482,1.819 -0.78699,0.72589 -1.26468,1.37172 -1.87656,2.31839 -2.71713,2.72516 -5.30006,5.14951 -8.17129,7.64963 -0.65801,0.51091 -1.02771,0.94605 -1.40573,1.33482 -0.008,-0.0464 0.0855,-0.0375 -0.1857,0.0303 -0.56854,0.28717 -0.86588,0.50653 -1.43799,0.87914 -1.38687,1.33856 -2.49898,2.52388 -3.90778,3.77894 -0.66928,0.51514 -1.04185,0.96055 -1.42404,1.35703 -0.01,-0.0489 0.0897,-0.0394 -0.17193,0.0368 -0.50452,0.33876 -0.74743,0.6014 -0.99112,0.82119 -8.1e-4,-0.0428 0.0773,-0.008 -0.22199,-0.0675 -0.50149,-0.0822 -0.70373,-0.10435 -0.90597,-0.12653 z"
   id="path5"
   style="fill:#fccf07;fill-opacity:0.96706587"
   sodipodi:nodetypes="cccccccssscsccccccccscccccccccccccccc" />
<path
   fill="#EDC639"
   opacity="1.000000"
   stroke="none"
   d=" M83.973824,253.046585   C83.103760,253.321762 82.233688,253.596924 81.053658,254.020203   C80.338875,254.190475 79.934052,254.212616 79.243469,254.119675   C77.431007,253.348114 75.941177,252.257751 74.370056,252.124283   C70.964417,251.834961 67.517189,252.035141 64.086975,252.035141   C64.032417,251.628296 63.977863,251.221466 63.923309,250.814621   C64.840233,250.540527 65.744720,250.086914 66.676163,250.022369   C71.613319,249.680267 76.556053,249.288223 81.499565,249.248398   C82.968208,249.236572 84.445587,250.309692 85.918961,250.885681   C85.436455,251.444519 84.953949,252.003357 84.242752,252.776871   C84.014061,252.991531 83.973824,253.046585 83.973824,253.046585  z"
   id="path6"
   style="fill:#fccf07;fill-opacity:0.96706587" />
<path
   fill="#E4C151"
   opacity="1.000000"
   stroke="none"
   d=" M224.474991,351.037384   C224.337540,350.899933 224.200073,350.762482 224.383743,350.340454   C225.906097,350.333130 227.107315,350.610413 228.516083,351.020264   C228.859879,351.618927 228.996124,352.084991 229.171295,352.892761   C229.605927,353.766632 230.001648,354.298737 230.308716,354.826324   C230.220047,354.821777 230.244629,354.645905 230.317459,354.901306   C230.592972,355.443359 230.795670,355.730042 231.102005,356.089752   C231.205643,356.162811 231.071793,356.378235 231.187042,356.673950   C231.539322,357.316437 231.776337,357.663177 232.117340,358.078217   C232.221329,358.146515 232.100006,358.363708 232.210602,358.668640   C232.560059,359.330841 232.798920,359.688141 233.240143,360.242584   C233.622070,360.958160 233.801620,361.476593 233.902679,362.114380   C233.801895,362.556335 233.966873,362.732452 234.248764,362.858490   C234.178421,362.954834 234.284195,362.740997 234.208206,363.108154   C234.075958,363.971039 234.019714,364.466797 233.588760,364.984619   C232.714783,365.040985 232.215500,365.075256 231.716217,365.109497   C231.378784,365.004333 231.170517,364.779510 231.196747,363.936584   C230.488098,361.984100 229.674088,360.530090 228.860077,359.076080   C228.860077,359.076080 228.955307,359.050659 228.885712,358.786987   C228.482147,358.035858 228.148148,357.548431 227.814148,357.061005   C227.483917,356.974396 227.265640,356.768890 227.220734,356.085358   C227.300049,355.409210 227.145447,355.206635 226.818314,355.118561   C226.818314,355.118561 226.927689,355.082794 226.858231,354.819702   C226.430115,354.079681 226.071457,353.602814 225.712814,353.125916   C225.712814,353.125916 225.827118,353.137177 225.807983,352.906403   C225.350891,352.129547 224.912949,351.583466 224.474991,351.037384  z"
   id="path7"
   style="fill:#fccf07;fill-opacity:0.96706587" />
<path
   fill="#E3C155"
   opacity="1.000000"
   stroke="none"
   d=" M248.539093,430.123322   C248.825516,429.244324 249.055862,428.822845 249.999115,427.096924   C249.999115,432.834106 249.856552,437.281586 250.095871,441.708405   C250.158447,442.865784 251.408478,443.958984 252.426361,445.036438   C252.052948,445.839935 251.366348,446.688660 250.679779,447.537415   C250.133240,446.650024 249.174301,445.791656 249.109421,444.870331   C248.774551,440.116028 248.668732,435.345642 248.539093,430.123322  z"
   id="path8"
   style="fill:#fccf07;fill-opacity:0.96706587" />
<path
   fill="#E3C155"
   opacity="1.000000"
   stroke="none"
   d=" M253.913803,76.536240   C253.377731,71.905403 252.896469,66.825447 252.608276,61.388786   C253.190414,66.050430 253.579514,71.068771 253.913803,76.536240  z"
   id="path9"
   style="fill:#fccf07;fill-opacity:0.96706587" />
<path
   fill="#E3C155"
   opacity="1.000000"
   stroke="none"
   d=" M215.892746,337.085266   C214.496155,335.249756 213.099564,333.414276 211.840698,331.358002   C212.768341,331.443024 213.558273,331.748810 214.581299,332.144867   C214.367279,330.706573 214.225510,329.753845 214.365723,328.976166   C215.844757,330.976257 217.041840,332.801300 217.916107,334.776917   C217.026443,335.646759 216.459595,336.365997 215.892746,337.085266  z"
   id="path10"
   style="fill:#fccf07;fill-opacity:0.96706587" />
<path
   fill="#E3C155"
   opacity="1.000000"
   stroke="none"
   d=" M231.758301,365.483643   C232.215500,365.075256 232.714783,365.040985 233.611023,365.006500   C234.007996,365.006256 234.052094,365.048706 234.040573,365.378296   C234.041077,367.572449 234.209091,369.250305 236.976318,368.327759   C237.526321,369.723541 237.902435,370.815552 238.278534,371.907593   C237.488922,372.582245 236.699310,373.256866 235.878876,374.264984   C234.498840,371.684875 233.149612,368.771332 231.758301,365.483643  z"
   id="path11"
   style="fill:#fccf07;fill-opacity:0.96706587" />
<path
   fill="#E4C151"
   opacity="1.000000"
   stroke="none"
   d=" M219.723663,342.986847   C219.545044,342.850616 219.366425,342.714417 219.387238,342.043213   C220.473953,341.243164 221.361267,340.978180 222.225204,340.721130   C222.201843,340.729034 222.249832,340.721130 222.246017,341.062103   C222.902084,342.228668 223.561966,343.054291 224.166779,343.881958   C224.111710,343.884033 224.116379,343.773926 224.218704,344.005188   C224.535156,344.494171 224.749268,344.751923 225.073517,345.085419   C225.183640,345.161194 225.085205,345.409760 225.203506,345.698303   C225.569855,346.315552 225.817902,346.644257 226.037903,346.974854   C226.009888,346.976746 226.056946,346.945190 225.791962,347.167114   C224.645493,347.631165 223.764038,347.873322 222.882568,348.115509   C222.882568,348.115509 222.930481,348.014038 222.871078,347.763153   C222.453506,347.045868 222.095322,346.579437 221.737137,346.113037   C221.737137,346.113037 221.839722,346.119904 221.826401,345.866272   C221.116608,344.737366 220.420135,343.862122 219.723663,342.986847  z"
   id="path12"
   style="fill:#fccf07;fill-opacity:0.96706587" />
<path
   fill="#E4C151"
   opacity="1.000000"
   stroke="none"
   d=" M214.083740,328.801086   C214.225510,329.753845 214.367279,330.706573 214.581299,332.144867   C213.558273,331.748810 212.768341,331.443024 211.718964,331.066742   C211.323441,330.888763 211.187393,330.781281 210.930145,330.115479   C210.383514,329.140198 209.958054,328.723267 209.532608,328.306305   C209.532608,328.306305 209.688126,328.290039 209.591660,328.105286   C209.234314,327.664276 208.973434,327.407990 208.712570,327.151733   C208.712570,327.151733 208.712326,327.123627 208.698975,327.139130   C209.272263,326.468872 209.858902,325.783142 210.761719,324.987549   C211.077911,324.877686 211.105301,324.886322 211.162567,325.185211   C211.648468,325.872559 212.077072,326.261047 212.420029,326.672791   C212.334366,326.696075 212.311295,326.520050 212.426239,326.794800   C212.828491,327.334412 213.115799,327.599243 213.597595,327.947876   C214.015442,328.240326 214.112671,328.496796 214.083740,328.801086  z"
   id="path13"
   style="fill:#fccf07;fill-opacity:0.96706587" />
<path
   fill="#E3C155"
   opacity="1.000000"
   stroke="none"
   d=" M245.895752,409.947388   C246.511703,412.463440 247.076004,415.372101 247.479889,418.606873   C246.827667,416.068695 246.335876,413.204346 245.895752,409.947388  z"
   id="path14"
   style="fill:#fccf07;fill-opacity:0.96706587" />
<path
   fill="#E3C155"
   opacity="1.000000"
   stroke="none"
   d=" M222.248566,340.713196   C221.361267,340.978180 220.473953,341.243164 219.307404,341.715851   C218.429352,341.143372 217.830551,340.363190 217.537811,339.264923   C218.690521,338.567902 219.537170,338.188965 220.631714,337.972778   C221.335938,338.994781 221.792252,339.853973 222.248566,340.713196  z"
   id="path15"
   style="fill:#fccf07;fill-opacity:0.96706587" />
<path
   fill="#E3C155"
   opacity="1.000000"
   stroke="none"
   d=" M222.905304,348.403748   C223.764038,347.873322 224.645493,347.631165 226.049927,347.371399   C227.151443,348.531738 227.729980,349.709686 228.308517,350.887665   C227.107315,350.610413 225.906097,350.333130 224.334747,350.052979   C223.619064,349.597412 223.273544,349.144714 222.905304,348.403748  z"
   id="path16"
   style="fill:#fccf07;fill-opacity:0.96706587" />
<path
   fill="#E4C151"
   opacity="1.000000"
   stroke="none"
   d=" M220.383820,337.810059   C219.537170,338.188965 218.690521,338.567902 217.488297,338.971008   C217.132721,338.995178 216.884430,338.840973 216.775146,338.410156   C216.404037,337.661896 216.142212,337.344482 215.880371,337.027069   C215.880371,337.027069 215.941116,337.044708 215.916931,337.065002   C216.459595,336.365997 217.026443,335.646759 217.899033,334.779083   C218.204773,334.630676 218.221527,334.643738 218.319397,334.896973   C218.656158,335.417847 218.895035,335.685455 219.098511,335.946136   C219.063080,335.939209 219.089752,335.872101 219.141632,336.175232   C219.585236,336.923004 219.976974,337.367615 220.366180,337.850006   C220.363647,337.887787 220.383820,337.810059 220.383820,337.810059  z"
   id="path17"
   style="fill:#fccf07;fill-opacity:0.96706587" />
<path
   fill="#E3C155"
   opacity="1.000000"
   stroke="none"
   d=" M228.887238,359.418243   C229.674088,360.530090 230.488098,361.984100 231.209976,363.697754   C230.383377,362.558411 229.648895,361.159424 228.887238,359.418243  z"
   id="path18"
   style="fill:#fccf07;fill-opacity:0.96706587" />
<path
   fill="#D9B95D"
   opacity="1.000000"
   stroke="none"
   d=" M178.230850,205.651855   C178.117020,206.480515 177.696915,207.426193 177.099884,208.635590   C176.389526,208.892075 175.856110,208.884857 174.923309,208.845917   C175.657486,207.799118 176.791046,206.783997 178.230850,205.651855  z"
   id="path19"
   style="fill:#fccf07;fill-opacity:0.96706587" />
<path
   fill="#E3C155"
   opacity="1.000000"
   stroke="none"
   d=" M242.878723,396.409668   C243.399292,397.528809 243.909882,399.016998 244.222137,400.751282   C243.638809,399.591187 243.253784,398.184937 242.878723,396.409668  z"
   id="path20"
   style="fill:#fccf07;fill-opacity:0.96706587" />
<path
   fill="#E3C155"
   opacity="1.000000"
   stroke="none"
   d=" M312.053619,306.752136   C312.479950,306.071014 313.176697,305.238342 314.154083,304.372650   C313.731171,305.093292 313.027618,305.846954 312.053619,306.752136  z"
   id="path21"
   style="fill:#fccf07;fill-opacity:0.96706587" />
<path
   fill="#E3C155"
   opacity="1"
   stroke="none"
   d="m 247.68594,421.32648 c 0.30098,0.84085 0.54692,2.01312 0.61097,3.41668 -0.34327,-0.8742 -0.50463,-1.97976 -0.61097,-3.41668 z"
   id="path22"
   style="fill:#fccf07;fill-opacity:0.96706587"
   sodipodi:nodetypes="ccc" />
<path
   fill="#E3C155"
   opacity="1.000000"
   stroke="none"
   d=" M219.777100,343.261993   C220.420135,343.862122 221.116608,344.737366 221.812134,345.915649   C221.150986,345.324829 220.490768,344.431000 219.777100,343.261993  z"
   id="path23"
   style="fill:#fccf07;fill-opacity:0.96706587" />
<path
   fill="#E3C155"
   opacity="1.000000"
   stroke="none"
   d=" M244.471924,403.364929   C244.851517,404.162170 245.227005,405.292908 245.453522,406.682281   C245.025635,405.860107 244.746719,404.779266 244.471924,403.364929  z"
   id="path24"
   style="fill:#fccf07;fill-opacity:0.96706587" />
<path
   fill="#E3C155"
   opacity="1.000000"
   stroke="none"
   d=" M236.738037,377.282715   C237.284256,378.106964 237.855515,379.292908 238.263580,380.719849   C237.654602,379.855347 237.208847,378.749878 236.738037,377.282715  z"
   id="path25"
   style="fill:#fccf07;fill-opacity:0.96706587" />
<path
   fill="#E3C155"
   opacity="1.000000"
   stroke="none"
   d=" M238.487320,382.322388   C238.898239,382.899902 239.353577,383.773499 239.755188,384.976440   C239.311554,384.410065 238.921646,383.514252 238.487320,382.322388  z"
   id="path26"
   style="fill:#fccf07;fill-opacity:0.96706587" />
<path
   fill="#D9B95D"
   opacity="1.000000"
   stroke="none"
   d=" M181.554169,202.836914   C181.238266,203.392700 180.679245,204.006790 179.872437,204.688141   C180.186798,204.135345 180.748917,203.515274 181.554169,202.836914  z"
   id="path27"
   style="fill:#fccf07;fill-opacity:0.96706587" />
<path
   fill="#E3C155"
   opacity="1.000000"
   stroke="none"
   d=" M241.742828,392.308350   C242.146088,393.074188 242.546524,394.210266 242.931793,395.727539   C242.524414,394.965332 242.132202,393.821960 241.742828,392.308350  z"
   id="path28"
   style="fill:#fccf07;fill-opacity:0.96706587" />
<path
   fill="#E3C155"
   opacity="1.000000"
   stroke="none"
   d=" M254.337585,81.493210   C254.038467,80.762451 253.788773,79.642441 253.734680,78.262749   C254.082550,79.036697 254.234787,80.070335 254.337585,81.493210  z"
   id="path29"
   style="fill:#fccf07;fill-opacity:0.96706587" />
<path
   fill="#E3C155"
   opacity="1.000000"
   stroke="none"
   d=" M224.546234,351.292236   C224.912949,351.583466 225.350891,352.129547 225.789490,352.960754   C225.399246,352.679626 225.008362,352.113342 224.546234,351.292236  z"
   id="path30"
   style="fill:#fccf07;fill-opacity:0.96706587" />
<path
   fill="#E3C155"
   opacity="1.000000"
   stroke="none"
   d=" M225.755890,353.430359   C226.071457,353.602814 226.430115,354.079681 226.821503,354.863953   C226.502472,354.692505 226.150726,354.213654 225.755890,353.430359  z"
   id="path31"
   style="fill:#fccf07;fill-opacity:0.96706587" />
<path
   fill="#E3C155"
   opacity="1.000000"
   stroke="none"
   d=" M227.845367,357.364075   C228.148148,357.548431 228.482147,358.035858 228.854523,358.825134   C228.554138,358.640350 228.215363,358.153778 227.845367,357.364075  z"
   id="path32"
   style="fill:#fccf07;fill-opacity:0.96706587" />
<path
   fill="#E3C155"
   opacity="1.000000"
   stroke="none"
   d=" M221.786713,346.412323   C222.095322,346.579437 222.453506,347.045868 222.854980,347.812622   C222.544296,347.645844 222.190292,347.178741 221.786713,346.412323  z"
   id="path33"
   style="fill:#fccf07;fill-opacity:0.96706587" />
<path
   fill="#E3C155"
   opacity="1.000000"
   stroke="none"
   d=" M239.650986,385.512146   C239.885834,385.666718 240.143250,386.130585 240.260452,386.783295   C239.971344,386.588562 239.822433,386.205017 239.650986,385.512146  z"
   id="path34"
   style="fill:#fccf07;fill-opacity:0.96706587" />
<path
   fill="#E3C155"
   opacity="1.000000"
   stroke="none"
   d=" M209.622864,328.595947   C209.958054,328.723267 210.383514,329.140198 210.872177,329.861938   C210.527969,329.739685 210.120544,329.312622 209.622864,328.595947  z"
   id="path35"
   style="fill:#fccf07;fill-opacity:0.96706587" />
<path
   fill="#E3C155"
   opacity="1.000000"
   stroke="none"
   d=" M240.877655,389.343506   C241.176163,389.642578 241.476929,390.323517 241.774521,391.389587   C241.474228,391.091583 241.177078,390.408508 240.877655,389.343506  z"
   id="path36"
   style="fill:#fccf07;fill-opacity:0.96706587" />
<path
   fill="#E3C155"
   opacity="1.000000"
   stroke="none"
   d=" M226.834839,355.358521   C227.145447,355.206635 227.300049,355.409210 227.214172,355.852417   C227.146240,355.978546 226.851379,355.598450 226.834839,355.358521  z"
   id="path37"
   style="fill:#fccf07;fill-opacity:0.96706587" />
<path
   fill="#D9B95D"
   opacity="1.000000"
   stroke="none"
   d=" M179.494049,204.694931   C179.527054,204.898941 179.292557,205.162979 178.796082,205.495789   C178.764908,205.294693 178.995712,205.024826 179.494049,204.694931  z"
   id="path38"
   style="fill:#fccf07;fill-opacity:0.96706587" />
<path
   fill="#E3C155"
   opacity="1.000000"
   stroke="none"
   d=" M235.971771,375.351105   C236.187729,375.380188 236.416473,375.765381 236.729553,376.480713   C236.537445,376.442963 236.261002,376.075073 235.971771,375.351105  z"
   id="path39"
   style="fill:#fccf07;fill-opacity:0.96706587" />
<path
   fill="#E3C155"
   opacity="1.000000"
   stroke="none"
   d=" M215.938217,337.347595   C216.142212,337.344482 216.404037,337.661896 216.792664,338.265076   C216.611649,338.256561 216.303848,337.962372 215.938217,337.347595  z"
   id="path40"
   style="fill:#fccf07;fill-opacity:0.96706587" />
<path
   fill="#E3C155"
   opacity="1.000000"
   stroke="none"
   d=" M208.785431,327.426086   C208.973434,327.407990 209.234314,327.664276 209.588196,328.183380   C209.406891,328.197632 209.132599,327.949036 208.785431,327.426086  z"
   id="path41"
   style="fill:#fccf07;fill-opacity:0.96706587" />
<path
   fill="#E3C155"
   opacity="1.000000"
   stroke="none"
   d=" M314.598206,304.323700   C314.327057,304.054413 314.439087,303.856049 314.857788,303.837646   C314.982208,303.887451 314.799194,304.264465 314.598206,304.323700  z"
   id="path42"
   style="fill:#fccf07;fill-opacity:0.96706587" />

<path
   fill="#EDC639"
   opacity="1.000000"
   stroke="none"
   d=" M434.960175,252.025238   C428.261658,252.022339 422.045135,252.022339 415.050140,252.022339   C417.765076,249.376495 437.044952,248.991333 444.651794,250.666031   C444.677856,251.120071 444.703888,251.574112 444.729950,252.028152   C441.634033,252.028152 438.538116,252.028152 434.960175,252.025238  z"
   id="path44"
   style="fill:#fccf07;fill-opacity:0.96706587" />
<path
   fill="#D9B95D"
   opacity="1.000000"
   stroke="none"
   d=" M316.005615,298.688232   C315.928741,298.339478 316.151215,298.070923 316.622253,297.699066   C316.883423,297.807251 316.895996,298.018677 316.913208,298.546204   C316.713562,298.830994 316.509277,298.799683 316.005615,298.688232  z"
   id="path45"
   style="fill:#fccf07;fill-opacity:0.96706587" />
<path
   fill="#EDC639"
   opacity="1.000000"
   stroke="none"
   d=" M84.036255,252.965668   C84.626877,253.021332 85.195305,253.102890 85.763741,253.184433   C85.723030,253.370102 85.682320,253.555756 85.641609,253.741409   C85.202126,253.619263 84.762642,253.497131 84.148483,253.210785   C83.973824,253.046585 84.014061,252.991531 84.036255,252.965668  z"
   id="path46"
   style="fill:#fccf07;fill-opacity:0.96706587" />
<path
   fill="#D9B95D"
   opacity="1.000000"
   stroke="none"
   d=" M176.786301,211.121613   C176.686188,211.465561 176.290970,211.871521 175.618500,212.373032   C175.724548,212.040253 176.107864,211.611938 176.786301,211.121613  z"
   id="path47"
   style="fill:#fccf07;fill-opacity:0.96706587" />
<path
   fill="#D9B95D"
   opacity="1.000000"
   stroke="none"
   d=" M178.975952,209.233841   C179.064636,209.549225 178.854080,209.804626 178.394104,210.120270   C178.126770,210.001556 178.108887,209.822601 178.080475,209.375488   C178.272217,209.129486 178.474457,209.151672 178.975952,209.233841  z"
   id="path48"
   style="fill:#fccf07;fill-opacity:0.96706587" />
<path
   fill="#E4C350"
   opacity="1.000000"
   stroke="none"
   d=" M177.971466,210.223511   C177.985611,210.379242 177.784424,210.656677 177.326569,210.992004   C177.253448,210.771011 177.482193,210.536118 177.971466,210.223511  z"
   id="path49"
   style="fill:#fccf07;fill-opacity:0.96706587" />
<path
   fill="#D9B95D"
   opacity="1.000000"
   stroke="none"
   d=" M175.169922,212.433929   C175.180389,212.609055 174.919418,212.882629 174.385345,213.254684   C174.374313,213.079559 174.636398,212.805969 175.169922,212.433929  z"
   id="path50"
   style="fill:#fccf07;fill-opacity:0.96706587" />
<path
   fill="#E3C155"
   opacity="1.000000"
   stroke="none"
   d=" M251.881958,414.858032   C250.882233,414.815247 250.124252,414.588043 249.366241,414.360870   C250.068542,413.753082 250.770844,413.145294 251.473145,412.537506   C251.689987,413.249542 251.906830,413.961578 251.881958,414.858032  z"
   id="path51"
   style="fill:#fccf07;fill-opacity:0.96706587" />
<path
   fill="#E3C155"
   opacity="1.000000"
   stroke="none"
   d=" M248.201233,405.653320   C248.722046,406.873016 249.186569,408.499023 249.666016,410.472931   C249.168930,409.233765 248.656921,407.646667 248.201233,405.653320  z"
   id="path52"
   style="fill:#fccf07;fill-opacity:0.96706587" />
<path
   fill="#E3C155"
   opacity="1.000000"
   stroke="none"
   d=" M247.083557,400.076294   C247.529221,401.189880 247.953217,402.726349 248.360748,404.668030   C247.916824,403.548553 247.489365,402.023834 247.083557,400.076294  z"
   id="path53"
   style="fill:#fccf07;fill-opacity:0.96706587" />
<path
   fill="#E3C155"
   opacity="1.000000"
   stroke="none"
   d=" M245.064087,392.285553   C245.453400,393.041534 245.828568,394.170837 246.186768,395.664062   C245.796524,394.904968 245.423233,393.781921 245.064087,392.285553  z"
   id="path54"
   style="fill:#fccf07;fill-opacity:0.96706587" />
<path
   fill="#E3C155"
   opacity="1.000000"
   stroke="none"
   d=" M239.061752,374.225220   C239.449066,374.699341 239.843552,375.533722 240.261047,376.721985   C239.879013,376.245728 239.473984,375.415619 239.061752,374.225220  z"
   id="path55"
   style="fill:#fccf07;fill-opacity:0.96706587" />
<path
   fill="#D9B95D"
   opacity="1.000000"
   stroke="none"
   d=" M296.987885,317.767273   C297.201843,317.184570 297.738312,316.463867 298.572083,315.571838   C298.349731,316.143402 297.830078,316.886322 296.987885,317.767273  z"
   id="path56"
   style="fill:#fccf07;fill-opacity:0.96706587" />
<path
   fill="#E3C155"
   opacity="1.000000"
   stroke="none"
   d=" M243.193298,386.134033   C243.559967,386.603027 243.889938,387.423248 244.222198,388.584839   C243.868530,388.112549 243.512558,387.298920 243.193298,386.134033  z"
   id="path57"
   style="fill:#fccf07;fill-opacity:0.96706587" />
<path
   fill="#E3C155"
   opacity="1.000000"
   stroke="none"
   d=" M246.179138,396.665894   C246.464996,396.957733 246.755783,397.614288 247.016083,398.639648   C246.718430,398.349182 246.451233,397.689911 246.179138,396.665894  z"
   id="path58"
   style="fill:#fccf07;fill-opacity:0.96706587" />
<path
   fill="#D9B95D"
   opacity="1.000000"
   stroke="none"
   d=" M299.663696,314.702667   C299.723206,314.314392 300.082214,313.795776 300.724243,313.131653   C300.659210,313.514893 300.311188,314.043610 299.663696,314.702667  z"
   id="path59"
   style="fill:#fccf07;fill-opacity:0.96706587" />
<path
   fill="#D9B95D"
   opacity="1.000000"
   stroke="none"
   d=" M313.268372,300.926392   C313.355103,300.584503 313.730042,300.164276 314.371155,299.632874   C314.277100,299.963806 313.916809,300.405914 313.268372,300.926392  z"
   id="path60"
   style="fill:#fccf07;fill-opacity:0.96706587" />
<path
   fill="#E3C155"
   opacity="1.000000"
   stroke="none"
   d=" M242.709625,384.209290   C242.985062,384.413788 243.126892,384.810333 243.274734,385.524414   C243.045837,385.361725 242.810928,384.881531 242.709625,384.209290  z"
   id="path61"
   style="fill:#fccf07;fill-opacity:0.96706587" />
<path
   fill="#E3C155"
   opacity="1.000000"
   stroke="none"
   d=" M244.632996,390.228394   C244.890533,390.452423 245.022751,390.869293 245.132950,391.616577   C244.909836,391.438385 244.708755,390.929810 244.632996,390.228394  z"
   id="path62"
   style="fill:#fccf07;fill-opacity:0.96706587" />
<path
   fill="#D9B95D"
   opacity="1.000000"
   stroke="none"
   d=" M303.107361,310.817749   C303.071625,310.644836 303.257874,310.342834 303.709747,309.968201   C303.760010,310.159912 303.544647,310.424316 303.107361,310.817749  z"
   id="path63"
   style="fill:#fccf07;fill-opacity:0.96706587" />
<path
   fill="#D9B95D"
   opacity="1.000000"
   stroke="none"
   d=" M304.116760,309.830750   C304.079468,309.670441 304.260468,309.357422 304.693115,308.929932   C304.741516,309.102966 304.538269,309.390503 304.116760,309.830750  z"
   id="path64"
   style="fill:#fccf07;fill-opacity:0.96706587" />
<path
   fill="#D9B95D"
   opacity="1.000000"
   stroke="none"
   d=" M314.806824,299.526062   C314.769196,299.331207 314.986298,299.049286 315.468628,298.692932   C315.509735,298.891968 315.285675,299.165466 314.806824,299.526062  z"
   id="path65"
   style="fill:#fccf07;fill-opacity:0.96706587" />
<path
   fill="#D9B95D"
   opacity="1.000000"
   stroke="none"
   d=" M198.770081,191.095154   C198.582703,191.637161 198.085999,192.259201 197.308502,192.996979   C197.505402,192.466873 197.983093,191.821045 198.770081,191.095154  z"
   id="path66"
   style="fill:#fccf07;fill-opacity:0.96706587" />
<path
   fill="#D9B95D"
   opacity="1.000000"
   stroke="none"
   d=" M181.785034,207.086365   C181.689957,207.431412 181.298187,207.846222 180.638504,208.376663   C180.743179,208.046906 181.115753,207.601501 181.785034,207.086365  z"
   id="path67"
   style="fill:#fccf07;fill-opacity:0.96706587" />
<path
   fill="#D9B95D"
   opacity="1.000000"
   stroke="none"
   d=" M188.722229,201.063171   C188.631607,201.409805 188.252686,201.832214 187.599274,202.349487   C187.694519,202.009216 188.064224,201.574081 188.722229,201.063171  z"
   id="path68"
   style="fill:#fccf07;fill-opacity:0.96706587" />
<path
   fill="#D9B95D"
   opacity="1.000000"
   stroke="none"
   d=" M202.171844,187.441193   C202.136780,187.812012 201.822784,188.286469 201.247833,188.885193   C201.288864,188.521225 201.590897,188.033020 202.171844,187.441193  z"
   id="path69"
   style="fill:#fccf07;fill-opacity:0.96706587" />
<path
   fill="#D9B95D"
   opacity="1.000000"
   stroke="none"
   d=" M180.189056,208.480164   C180.210815,208.668594 179.970963,208.933167 179.464935,209.270966   C179.441635,209.081558 179.684540,208.818924 180.189056,208.480164  z"
   id="path70"
   style="fill:#fccf07;fill-opacity:0.96706587" />
<path
   fill="#D9B95D"
   opacity="1.000000"
   stroke="none"
   d=" M203.300812,186.210419   C203.344193,186.403992 203.114243,186.775421 202.587463,187.299011   C202.536270,187.096878 202.781876,186.742599 203.300812,186.210419  z"
   id="path71"
   style="fill:#fccf07;fill-opacity:0.96706587" />
<path
   fill="#D9B95D"
   opacity="1.000000"
   stroke="none"
   d=" M187.130798,202.428284   C187.131042,202.668625 186.860092,202.976776 186.278366,203.219543   C186.264923,202.934814 186.562256,202.715454 187.130798,202.428284  z"
   id="path72"
   style="fill:#fccf07;fill-opacity:0.96706587" />
<path
   fill="#E3C155"
   opacity="1.000000"
   stroke="none"
   d=" M234.208206,363.108154   C234.594223,363.255493 234.904251,363.769958 234.940491,364.628082   C234.461838,364.997406 234.256973,365.023071 234.052094,365.048706   C234.052094,365.048706 234.007996,365.006256 233.985718,364.984375   C234.019714,364.466797 234.075958,363.971039 234.208206,363.108154  z"
   id="path73"
   style="fill:#fccf07;fill-opacity:0.96706587" />
<path
   fill="#E3C155"
   opacity="1.000000"
   stroke="none"
   d=" M229.171295,352.892761   C229.505646,353.090698 229.878922,353.630341 230.324783,354.500427   C230.001648,354.298737 229.605927,353.766632 229.171295,352.892761  z"
   id="path74"
   style="fill:#fccf07;fill-opacity:0.96706587" />
<path
   fill="#E3C155"
   opacity="1.000000"
   stroke="none"
   d=" M232.210587,358.668640   C232.395874,358.697235 232.691757,359.030762 233.012726,359.704834   C232.798920,359.688141 232.560059,359.330841 232.210587,358.668640  z"
   id="path75"
   style="fill:#fccf07;fill-opacity:0.96706587" />
<path
   fill="#E3C155"
   opacity="1.000000"
   stroke="none"
   d=" M231.187042,356.673950   C231.364777,356.700500 231.657761,357.022797 231.982056,357.677490   C231.776337,357.663177 231.539322,357.316437 231.187042,356.673950  z"
   id="path76"
   style="fill:#fccf07;fill-opacity:0.96706587" />
<path
   fill="#E3C155"
   opacity="1.000000"
   stroke="none"
   d=" M230.317459,354.901306   C230.486237,354.915955 230.727844,355.185974 230.983917,355.736359   C230.795670,355.730042 230.592972,355.443359 230.317459,354.901306  z"
   id="path77"
   style="fill:#fccf07;fill-opacity:0.96706587" />
<path
   fill="#E3C155"
   opacity="1.000000"
   stroke="none"
   d=" M233.902679,362.114380   C233.981186,361.995026 234.277100,362.322723 234.298096,362.542419   C233.966873,362.732452 233.801895,362.556335 233.902679,362.114380  z"
   id="path78"
   style="fill:#fccf07;fill-opacity:0.96706587" />
<path
   fill="#E4C151"
   opacity="1.000000"
   stroke="none"
   d=" M234.040573,365.378296   C234.256973,365.023071 234.461838,364.997406 234.974518,364.937134   C235.773544,365.745453 236.264755,366.588348 236.779205,367.727600   C234.209091,369.250305 234.041077,367.572449 234.040573,365.378296  z"
   id="path79"
   style="fill:#fccf07;fill-opacity:0.96706587" />
<path
   fill="#E3C155"
   opacity="1.000000"
   stroke="none"
   d=" M222.246017,341.062103   C222.873520,341.563080 223.497208,342.405029 224.171356,343.563446   C223.561966,343.054291 222.902084,342.228668 222.246017,341.062103  z"
   id="path80"
   style="fill:#fccf07;fill-opacity:0.96706587" />
<path
   fill="#E3C155"
   opacity="1.000000"
   stroke="none"
   d=" M225.203506,345.698303   C225.378998,345.717438 225.672791,346.025116 226.016266,346.652893   C225.817902,346.644257 225.569855,346.315552 225.203506,345.698303  z"
   id="path81"
   style="fill:#fccf07;fill-opacity:0.96706587" />
<path
   fill="#E3C155"
   opacity="1.000000"
   stroke="none"
   d=" M224.218704,344.005188   C224.382721,344.005371 224.649078,344.236786 224.939407,344.738953   C224.749268,344.751923 224.535156,344.494171 224.218704,344.005188  z"
   id="path82"
   style="fill:#fccf07;fill-opacity:0.96706587" />
<path
   fill="#E3C155"
   opacity="1.000000"
   stroke="none"
   d=" M211.162567,325.185211   C211.507843,325.288086 211.910400,325.689819 212.409317,326.370544   C212.077072,326.261047 211.648468,325.872559 211.162567,325.185211  z"
   id="path83"
   style="fill:#fccf07;fill-opacity:0.96706587" />
<path
   fill="#E3C155"
   opacity="1.000000"
   stroke="none"
   d=" M212.426239,326.794800   C212.605637,326.780090 212.899979,327.040131 213.298706,327.582153   C213.115799,327.599243 212.828491,327.334412 212.426239,326.794800  z"
   id="path84"
   style="fill:#fccf07;fill-opacity:0.96706587" />
<path
   fill="#E3C155"
   opacity="1.000000"
   stroke="none"
   d=" M219.141632,336.175232   C219.466400,336.322754 219.843048,336.773438 220.294205,337.518158   C219.976974,337.367615 219.585236,336.923004 219.141632,336.175232  z"
   id="path85"
   style="fill:#fccf07;fill-opacity:0.96706587" />
<path
   fill="#E3C155"
   opacity="1.000000"
   stroke="none"
   d=" M218.319397,334.896973   C218.491989,334.893829 218.762451,335.143890 219.083420,335.673523   C218.895035,335.685455 218.656158,335.417847 218.319397,334.896973  z"
   id="path86"
   style="fill:#fccf07;fill-opacity:0.96706587" />
<path
   fill="#FDD131"
   opacity="1.000000"
   stroke="none"
   d=" M207.023468,203.663757   C207.031494,203.421555 207.138947,203.237320 207.792053,202.971985   C208.483154,202.525177 208.728012,202.217468 208.972870,201.909760   C208.972870,201.909760 208.966705,201.979874 209.174210,201.855453   C209.561325,201.427124 209.740936,201.123215 209.920547,200.819305   C209.920547,200.819305 209.930893,200.929855 210.130417,200.816620   C210.518768,200.389297 210.707596,200.075180 210.896423,199.761078   C210.896423,199.761078 210.922852,199.915253 211.093307,199.783020   C211.451340,199.325531 211.638931,199.000275 211.826508,198.675034   C211.826508,198.675034 211.834854,198.853073 212.008881,198.726990   C212.369980,198.272263 212.557068,197.943604 212.744141,197.614944   C212.744141,197.614944 212.751968,197.788132 212.961777,197.674820   C213.453186,197.036880 213.734772,196.512268 214.016357,195.987640   C214.016357,195.987640 214.017334,196.012466 214.245209,195.914764   C214.643219,195.524399 214.813385,195.231720 214.983536,194.939056   C214.983536,194.939056 214.999374,194.998199 215.210785,194.883621   C215.598206,194.469086 215.774185,194.169144 215.950180,193.869186   C215.950180,193.869186 215.961212,193.963364 216.158859,193.837845   C216.533081,193.394913 216.709671,193.077499 216.886261,192.760101   C216.886261,192.760101 216.912918,192.916779 217.075119,192.772720   C217.393234,192.288116 217.549133,191.947571 217.705048,191.607025   C217.705048,191.607025 217.723892,191.777298 217.951141,191.640381   C218.469391,190.918716 218.760391,190.333954 219.051392,189.749207   C219.030029,189.483154 219.125580,189.269348 219.863205,188.970840   C220.913132,187.865768 221.437912,186.897659 221.962692,185.929535   C221.962692,185.929535 221.989960,185.990784 222.217072,185.810608   C222.623657,185.247589 222.803116,184.864731 222.982559,184.481857   C236.268158,164.471100 245.554703,142.869247 249.188507,118.986069   C249.366531,117.815948 250.435867,116.781433 251.672760,115.793434   C254.830215,133.417068 259.909454,150.115067 268.042480,166.529846   C268.477417,167.808136 268.853302,168.391510 269.229187,168.974884   C269.229187,168.974884 269.112061,168.915604 269.096527,169.232544   C270.101379,171.015137 271.121735,172.480789 272.142120,173.946442   C272.142120,173.946442 272.067902,173.937225 272.085052,174.218475   C272.484833,174.980576 272.867462,175.461441 273.250092,175.942291   C273.250092,175.942291 273.127472,175.899414 273.154785,176.162521   C273.618896,176.849426 274.055725,177.273239 274.492554,177.697052   C274.492554,177.697052 274.360809,177.707489 274.401337,177.924347   C274.679596,178.424469 274.917358,178.707718 275.155090,178.990952   C275.155090,178.990952 275.052704,178.951401 275.087280,179.221771   C275.550385,179.927689 275.978882,180.363220 276.407379,180.798737   C276.407379,180.798737 276.251251,180.802322 276.305908,180.998260   C276.606049,181.459076 276.851501,181.723969 277.096985,181.988861   C277.096985,181.988861 277.036865,181.954193 277.032349,182.279175   C277.742157,183.373413 278.456512,184.142685 279.170837,184.911957   C279.170837,184.911957 279.081482,184.924881 279.155273,185.136139   C279.498566,185.570007 279.768097,185.792648 280.037628,186.015274   C280.037628,186.015274 279.981873,186.009018 280.019958,186.293640   C280.471649,187.019348 280.885223,187.460434 281.298828,187.901520   C281.298828,187.901520 281.124115,187.880997 281.215515,188.066528   C281.582764,188.496460 281.858673,188.740845 282.134552,188.985229   C282.134552,188.985229 282.047272,188.967133 282.051788,189.289825   C283.091553,190.708496 284.126801,191.804489 285.162048,192.900482   C285.162048,192.900482 285.080719,192.923248 285.165771,193.135406   C285.533081,193.560638 285.815399,193.773727 286.097687,193.986801   C286.097687,193.986801 286.029388,193.974625 286.032715,194.300720   C286.825073,195.302734 287.614105,195.978638 288.403168,196.654541   C288.403168,196.654541 288.259216,196.774292 288.300964,197.034698   C288.980225,197.811661 289.617676,198.328201 290.255157,198.844757   C290.255157,198.844757 290.122131,198.866943 290.216370,199.064102   C290.599670,199.491058 290.888763,199.720856 291.177856,199.950653   C291.177856,199.950653 291.053467,199.941177 291.162323,200.137131   C291.568207,200.540939 291.865234,200.748810 292.162262,200.956665   C292.162262,200.956665 292.046722,200.964142 292.150391,201.152344   C292.532898,201.554535 292.811798,201.768524 293.090668,201.982513   C293.090668,201.982513 293.020020,201.976379 293.115234,202.191345   C293.499451,202.596313 293.788483,202.786331 294.077484,202.976349   C294.077484,202.976349 294.011902,202.987289 294.033081,203.316757   C295.052765,204.424591 296.051239,205.202957 297.049713,205.981323   C297.049713,205.981339 296.996002,205.999451 297.090546,206.220490   C297.477112,206.622574 297.769165,206.803635 298.061188,206.984695   C298.061188,206.984695 298.002258,206.999527 298.105530,207.213272   C298.497955,207.611755 298.787079,207.796509 299.076202,207.981247   C299.076202,207.981247 299.010406,207.989456 299.113586,208.202713   C299.509521,208.602203 299.802246,208.788437 300.094971,208.974670   C300.094971,208.974670 300.020386,208.982056 300.141144,209.184143   C300.559357,209.578583 300.856842,209.770920 301.154297,209.963257   C301.154297,209.963257 301.030090,209.965469 301.150848,210.155731   C301.580536,210.542007 301.889435,210.737991 302.198364,210.933975   C302.198364,210.933975 302.055115,210.940796 302.178101,211.125244   C302.617340,211.506088 302.933594,211.702454 303.249847,211.898834   C303.249847,211.898834 303.117950,211.890137 303.175415,212.159821   C303.943085,212.849106 304.653229,213.268692 305.363403,213.688263   C305.363403,213.688263 305.224182,213.708969 305.328857,213.938171   C305.963501,214.448090 306.493469,214.728821 307.023468,215.009537   C307.023468,215.009537 306.985687,215.018311 307.103149,215.234009   C307.517700,215.623993 307.814789,215.798279 308.111847,215.972580   C308.111847,215.972580 308.018433,215.982178 308.144714,216.178162   C308.582306,216.557022 308.893616,216.739914 309.204926,216.922806   C309.204926,216.922806 309.057404,216.942902 309.198975,217.112640   C309.676788,217.447769 310.013000,217.613174 310.349213,217.778564   C310.349213,217.778580 310.165985,217.796188 310.307037,218.008270   C311.026367,218.504944 311.604675,218.789536 312.182953,219.074142   C312.458862,219.058670 312.679413,219.161682 313.096313,219.858154   C313.755127,220.547363 314.162231,220.761597 314.569366,220.975845   C333.809723,234.260696 354.517792,244.115616 377.725098,248.251755   C380.327606,248.715576 382.790588,249.962296 386.881439,251.392395   C310.795013,267.036682 266.019836,312.229370 251.162491,388.032166   C250.150345,386.466919 249.270309,385.700714 249.144516,384.826080   C243.085022,342.691071 222.546600,309.065155 189.027588,282.313721   C188.345123,281.593536 187.994202,281.404175 187.643295,281.214813   C187.643295,281.214813 187.831314,281.189148 187.693939,281.000916   C187.010620,280.551636 186.464691,280.290588 185.918747,280.029572   C185.918747,280.029572 185.988922,280.013672 185.856476,279.811798   C185.405228,279.441010 185.086426,279.272064 184.767609,279.103149   C184.767609,279.103149 184.930664,279.073975 184.776764,278.890015   C184.067825,278.472382 183.512772,278.238739 182.957703,278.005096   C182.957703,278.005096 183.008774,277.984650 182.874924,277.777100   C182.420151,277.416595 182.099228,277.263611 181.778305,277.110626   C181.778305,277.110626 181.924393,277.072266 181.772125,276.884338   C181.067749,276.464691 180.515640,276.232971 179.963516,276.001282   C179.963516,276.001282 180.009354,275.981201 179.877808,275.772827   C179.429382,275.411011 179.112503,275.257599 178.795624,275.104156   C178.795624,275.104156 178.933151,275.069519 178.773071,274.880524   C178.051117,274.472809 177.489273,274.254059 176.927429,274.035309   C176.927429,274.035309 176.991165,274.013306 176.850296,273.812073   C176.377350,273.467346 176.045288,273.323883 175.713226,273.180389   C175.713226,273.180389 175.881927,273.136536 175.723099,272.950439   C174.981277,272.551208 174.398300,272.338135 173.815308,272.125031   C173.815308,272.125031 173.937820,272.089355 173.786682,271.880219   C173.064743,271.461487 172.493973,271.251862 171.923187,271.042267   C171.923187,271.042267 171.987427,271.015991 171.814240,270.802521   C171.079468,270.394623 170.517899,270.200195 169.956329,270.005798   C169.956329,270.005798 170.005630,269.980316 169.854065,269.783020   C169.367172,269.456329 169.031860,269.326935 168.696533,269.197571   C168.696533,269.197571 168.879501,269.148926 168.710342,268.974182   C167.944748,268.603638 167.348297,268.407898 166.751862,268.212128   C166.751862,268.212128 166.855392,268.188293 166.725250,267.905273   C165.321060,267.146820 164.047043,266.671417 162.773026,266.196014   C162.773026,266.196014 162.884842,266.162811 162.713806,265.915863   C161.250748,265.230499 159.958710,264.792053 158.666672,264.353607   C158.666672,264.353607 158.790848,264.319885 158.629150,264.076782   C157.621399,263.574432 156.775360,263.315186 155.929321,263.055969   C155.929321,263.055969 155.985794,263.021057 155.811371,262.740967   C153.334229,261.736969 151.031525,261.013031 148.728821,260.289124   C148.728821,260.289124 148.814621,260.258820 148.640961,259.979675   C146.582428,259.184998 144.697571,258.669495 142.812698,258.153992   C142.812698,258.153992 142.926590,258.105438 142.735367,257.860901   C134.746689,255.309174 126.949242,253.001999 119.406342,250.770126   C125.869614,249.180679 132.758469,247.684464 139.517807,245.738403   C142.758621,244.805328 145.754364,243.021027 148.861099,241.622223   C148.861099,241.622238 148.841339,241.750153 149.101318,241.773407   C149.911774,241.500580 150.462250,241.204498 151.012741,240.908417   C151.012741,240.908417 150.982468,240.971603 151.321930,241.007858   C153.105499,240.335968 154.549606,239.627823 155.993713,238.919678   C155.993713,238.919662 155.988510,238.984833 156.309570,239.002609   C157.351730,238.528519 158.072830,238.036636 158.793915,237.544769   C158.793915,237.544754 158.779831,237.669907 159.078476,237.701340   C160.566605,237.068756 161.756104,236.404739 162.945602,235.740723   C162.945602,235.740723 162.911789,235.869919 163.214676,235.893631   C164.636337,235.172562 165.755112,234.427795 166.873886,233.683014   C166.873886,233.683014 166.860794,233.812103 167.124268,233.800842   C167.895706,233.417511 168.403687,233.045441 168.911682,232.673370   C168.911682,232.673370 168.870911,232.812592 169.130478,232.797455   C169.862259,232.380234 170.334457,231.978180 170.806671,231.576111   C170.806671,231.576111 170.787125,231.684082 171.096649,231.733566   C172.234482,231.114838 173.062790,230.446625 173.891098,229.778412   C173.891098,229.778412 173.882095,229.866989 174.206955,229.889221   C175.538513,229.099991 176.545227,228.288513 177.551941,227.477020   C177.551941,227.477036 177.857117,227.472672 177.988220,227.473236   C178.393402,227.233139 178.667496,226.992462 178.941574,226.751785   C178.941574,226.751785 178.913193,226.904663 179.103043,226.824707   C179.530029,226.480713 179.767166,226.216660 180.004303,225.952606   C180.004288,225.952591 180.000473,226.006409 180.336884,226.014648   C181.652878,225.182602 182.632462,224.342331 183.612030,223.502045   C183.612045,223.502060 183.640564,223.584030 183.881409,223.542877   C184.391357,223.243637 184.660461,222.985550 184.929565,222.727463   C184.929565,222.727463 184.895355,222.858948 185.193893,222.865326   C186.252319,222.136658 187.012207,221.401596 187.772079,220.666534   C187.772079,220.666534 187.790009,220.800690 187.999939,220.719849   C188.454514,220.351852 188.699142,220.064697 188.943771,219.777542   C188.943771,219.777542 188.934647,219.933014 189.115295,219.837219   C189.532013,219.473511 189.768066,219.205612 190.004150,218.937714   C190.004150,218.937729 189.997726,219.000946 190.278595,218.954437   C190.954086,218.457062 191.348724,218.006226 191.743362,217.555374   C191.743362,217.555374 191.749054,217.716507 191.950272,217.643768   C192.413223,217.301453 192.674957,217.031876 192.936707,216.762299   C192.936707,216.762299 192.918350,216.916382 193.105103,216.815216   C193.517197,216.430130 193.742554,216.146194 193.967911,215.862274   C193.967911,215.862274 193.960846,215.958160 194.165497,215.867920   C194.577209,215.498611 194.784256,215.219559 194.991287,214.940491   C194.991287,214.940491 194.998291,214.998825 195.280182,214.950012   C195.922775,214.435654 196.283463,213.970108 196.644135,213.504547   C196.644135,213.504547 196.665863,213.630966 196.880096,213.558868   C197.319046,213.191315 197.543777,212.895859 197.768509,212.600403   C197.768509,212.600403 197.774292,212.769699 197.966766,212.672333   C198.385941,212.271057 198.612640,211.967163 198.839355,211.663269   C198.839340,211.663254 198.843506,211.840607 199.026093,211.737518   C199.449524,211.344452 199.690338,211.054474 199.931152,210.764496   C199.931152,210.764481 199.912888,210.922272 200.099915,210.814301   C200.501419,210.408386 200.715897,210.110443 200.930374,209.812500   C200.930374,209.812500 200.928772,209.929596 201.125763,209.833008   C201.536682,209.452896 201.750610,209.169403 201.964539,208.885895   C201.964523,208.885895 201.977112,208.959885 202.204987,208.827194   C202.631393,208.355209 202.829941,208.015900 203.028473,207.676590   C203.035614,207.426773 203.146530,207.237915 203.833435,206.948990   C204.547989,206.433411 204.790344,206.078812 205.032715,205.724213   C205.040863,205.464325 205.155106,205.265366 205.851929,204.945892   C206.560104,204.397552 206.791779,204.030655 207.023468,203.663757  z"
   id="path87"
   style="fill:#fccf07;fill-opacity:0.96706587" />
<path
   fill="#D9B95D"
   opacity="1.000000"
   stroke="none"
   d=" M148.461945,241.653625   C145.754364,243.021027 142.758621,244.805328 139.517807,245.738403   C132.758469,247.684464 125.869614,249.180679 119.406342,250.770126   C126.949242,253.001999 134.746689,255.309174 142.756454,257.919098   C133.253815,256.019318 123.538857,253.816788 113.823906,251.614273   C113.849174,251.337921 113.874435,251.061584 113.899704,250.785248   C125.287407,247.751831 136.675110,244.718414 148.461945,241.653625  z"
   id="path88"
   style="fill:#fccf07;fill-opacity:0.96706587" />
<path
   fill="#D9B95D"
   opacity="1.000000"
   stroke="none"
   d=" M148.984009,260.531708   C151.031525,261.013031 153.334229,261.736969 155.815643,262.773865   C153.742645,262.316010 151.490936,261.545166 148.984009,260.531708  z"
   id="path89"
   style="fill:#fccf07;fill-opacity:0.96706587" />
<path
   fill="#D9B95D"
   opacity="1.000000"
   stroke="none"
   d=" M272.105865,173.605774   C271.121735,172.480789 270.101379,171.015137 269.129333,169.175674   C270.141632,170.289612 271.105621,171.777359 272.105865,173.605774  z"
   id="path90"
   style="fill:#fccf07;fill-opacity:0.96706587" />
<path
   fill="#D9B95D"
   opacity="1.000000"
   stroke="none"
   d=" M143.057327,258.415894   C144.697571,258.669495 146.582428,259.184998 148.647690,260.024658   C146.986038,259.791809 145.143997,259.234802 143.057327,258.415894  z"
   id="path91"
   style="fill:#fccf07;fill-opacity:0.96706587" />
<path
   fill="#D9B95D"
   opacity="1.000000"
   stroke="none"
   d=" M285.102173,192.577774   C284.126801,191.804489 283.091553,190.708496 282.062378,189.246536   C283.059723,190.005402 284.051025,191.130234 285.102173,192.577774  z"
   id="path92"
   style="fill:#fccf07;fill-opacity:0.96706587" />
<path
   fill="#D9B95D"
   opacity="1.000000"
   stroke="none"
   d=" M155.638794,238.899979   C154.549606,239.627823 153.105499,240.335968 151.291901,240.989777   C152.376236,240.250397 153.830048,239.565338 155.638794,238.899979  z"
   id="path93"
   style="fill:#fccf07;fill-opacity:0.96706587" />
<path
   fill="#D9B95D"
   opacity="1.000000"
   stroke="none"
   d=" M162.962952,266.473389   C164.047043,266.671417 165.321060,267.146820 166.730774,267.958069   C165.628571,267.779572 164.390717,267.265198 162.962952,266.473389  z"
   id="path94"
   style="fill:#fccf07;fill-opacity:0.96706587" />
<path
   fill="#D9B95D"
   opacity="1.000000"
   stroke="none"
   d=" M183.283875,223.584351   C182.632462,224.342331 181.652878,225.182602 180.314117,226.000153   C180.955200,225.207184 181.955444,224.436935 183.283875,223.584351  z"
   id="path95"
   style="fill:#fccf07;fill-opacity:0.96706587" />
<path
   fill="#D9B95D"
   opacity="1.000000"
   stroke="none"
   d=" M177.235840,227.563751   C176.545227,228.288513 175.538513,229.099991 174.163422,229.879944   C174.836578,229.115784 175.878143,228.383133 177.235840,227.563751  z"
   id="path96"
   style="fill:#fccf07;fill-opacity:0.96706587" />
<path
   fill="#D9B95D"
   opacity="1.000000"
   stroke="none"
   d=" M166.532684,233.718506   C165.755112,234.427795 164.636337,235.172562 163.151306,235.872604   C163.920517,235.136566 165.056015,234.445282 166.532684,233.718506  z"
   id="path97"
   style="fill:#fccf07;fill-opacity:0.96706587" />
<path
   fill="#D9B95D"
   opacity="1.000000"
   stroke="none"
   d=" M296.956482,205.679092   C296.051239,205.202957 295.052765,204.424591 294.050629,203.288513   C294.985748,203.746155 295.924500,204.561508 296.956482,205.679092  z"
   id="path98"
   style="fill:#fccf07;fill-opacity:0.96706587" />
<path
   fill="#D9B95D"
   opacity="1.000000"
   stroke="none"
   d=" M162.598007,235.750824   C161.756104,236.404739 160.566605,237.068756 159.018036,237.683640   C159.856110,237.009979 161.053253,236.385452 162.598007,235.750824  z"
   id="path99"
   style="fill:#fccf07;fill-opacity:0.96706587" />
<path
   fill="#D9B95D"
   opacity="1.000000"
   stroke="none"
   d=" M221.672638,186.076782   C221.437912,186.897659 220.913132,187.865768 220.034622,188.909424   C220.248123,188.064651 220.815353,187.144348 221.672638,186.076782  z"
   id="path100"
   style="fill:#fccf07;fill-opacity:0.96706587" />
<path
   fill="#D9B95D"
   opacity="1.000000"
   stroke="none"
   d=" M173.573410,229.823868   C173.062790,230.446625 172.234482,231.114838 171.045471,231.713776   C171.541748,231.052765 172.398727,230.461044 173.573410,229.823868  z"
   id="path101"
   style="fill:#fccf07;fill-opacity:0.96706587" />
<path
   fill="#D9B95D"
   opacity="1.000000"
   stroke="none"
   d=" M279.129242,184.593353   C278.456512,184.142685 277.742157,183.373413 277.055634,182.253448   C277.751495,182.693390 278.419586,183.484070 279.129242,184.593353  z"
   id="path102"
   style="fill:#fccf07;fill-opacity:0.96706587" />
<path
   fill="#D9B95D"
   opacity="1.000000"
   stroke="none"
   d=" M187.453522,220.718033   C187.012207,221.401596 186.252319,222.136658 185.129517,222.843658   C185.556061,222.133575 186.345520,221.451553 187.453522,220.718033  z"
   id="path103"
   style="fill:#fccf07;fill-opacity:0.96706587" />
<path
   fill="#D9B95D"
   opacity="1.000000"
   stroke="none"
   d=" M288.318115,196.351715   C287.614105,195.978638 286.825073,195.302734 286.044495,194.268112   C286.779663,194.622574 287.506348,195.335739 288.318115,196.351715  z"
   id="path104"
   style="fill:#fccf07;fill-opacity:0.96706587" />
<path
   fill="#D9B95D"
   opacity="1.000000"
   stroke="none"
   d=" M158.885117,264.614349   C159.958710,264.792053 161.250748,265.230499 162.725128,265.973083   C161.639511,265.809875 160.371536,265.342468 158.885117,264.614349  z"
   id="path105"
   style="fill:#fccf07;fill-opacity:0.96706587" />
<path
   fill="#D9B95D"
   opacity="1.000000"
   stroke="none"
   d=" M305.237885,213.404419   C304.653229,213.268692 303.943085,212.849106 303.184143,212.094315   C303.794373,212.212936 304.453369,212.666763 305.237885,213.404419  z"
   id="path106"
   style="fill:#fccf07;fill-opacity:0.96706587" />
<path
   fill="#D9B95D"
   opacity="1.000000"
   stroke="none"
   d=" M290.188904,198.546417   C289.617676,198.328201 288.980225,197.811661 288.349182,196.954422   C288.944611,197.158508 289.533630,197.703293 290.188904,198.546417  z"
   id="path107"
   style="fill:#fccf07;fill-opacity:0.96706587" />
<path
   fill="#D9B95D"
   opacity="1.000000"
   stroke="none"
   d=" M156.118958,263.325439   C156.775360,263.315186 157.621399,263.574432 158.635712,264.140778   C157.972183,264.163574 157.140381,263.879242 156.118958,263.325439  z"
   id="path108"
   style="fill:#fccf07;fill-opacity:0.96706587" />
<path
   fill="#D9B95D"
   opacity="1.000000"
   stroke="none"
   d=" M158.463074,237.587601   C158.072830,238.036636 157.351730,238.528519 156.283676,238.982651   C156.668549,238.506760 157.400375,238.068604 158.463074,237.587601  z"
   id="path109"
   style="fill:#fccf07;fill-opacity:0.96706587" />
<path
   fill="#D9B95D"
   opacity="1.000000"
   stroke="none"
   d=" M150.691757,240.876465   C150.462250,241.204498 149.911774,241.500580 149.039108,241.755615   C149.268204,241.424545 149.819489,241.134521 150.691757,240.876465  z"
   id="path110"
   style="fill:#fccf07;fill-opacity:0.96706587" />
<path
   fill="#D9B95D"
   opacity="1.000000"
   stroke="none"
   d=" M276.366455,180.486237   C275.978882,180.363220 275.550385,179.927689 275.108795,179.171295   C275.505646,179.291519 275.915588,179.732635 276.366455,180.486237  z"
   id="path111"
   style="fill:#fccf07;fill-opacity:0.96706587" />
<path
   fill="#D9B95D"
   opacity="1.000000"
   stroke="none"
   d=" M273.239746,175.623138   C272.867462,175.461441 272.484833,174.980576 272.092163,174.181763   C272.464569,174.343857 272.846985,174.823914 273.239746,175.623138  z"
   id="path112"
   style="fill:#fccf07;fill-opacity:0.96706587" />
<path
   fill="#D9B95D"
   opacity="1.000000"
   stroke="none"
   d=" M186.063141,280.300049   C186.464691,280.290588 187.010620,280.551636 187.699860,281.095612   C187.297943,281.109192 186.752731,280.839844 186.063141,280.300049  z"
   id="path113"
   style="fill:#fccf07;fill-opacity:0.96706587" />
<path
   fill="#D9B95D"
   opacity="1.000000"
   stroke="none"
   d=" M269.228821,168.613129   C268.853302,168.391510 268.477417,167.808136 268.077240,166.864120   C268.444733,167.086121 268.836578,167.668747 269.228821,168.613129  z"
   id="path114"
   style="fill:#fccf07;fill-opacity:0.96706587" />
<path
   fill="#D9B95D"
   opacity="1.000000"
   stroke="none"
   d=" M274.432190,177.392746   C274.055725,177.273239 273.618896,176.849426 273.180206,176.102753   C273.576172,176.216064 273.973999,176.652252 274.432190,177.392746  z"
   id="path115"
   style="fill:#fccf07;fill-opacity:0.96706587" />
<path
   fill="#D9B95D"
   opacity="1.000000"
   stroke="none"
   d=" M183.112183,278.273071   C183.512772,278.238739 184.067825,278.472382 184.788635,278.971985   C184.391830,279.005615 183.829254,278.773346 183.112183,278.273071  z"
   id="path116"
   style="fill:#fccf07;fill-opacity:0.96706587" />
<path
   fill="#D9B95D"
   opacity="1.000000"
   stroke="none"
   d=" M180.125900,276.262695   C180.515640,276.232971 181.067749,276.464691 181.788620,276.958008   C181.401001,276.987793 180.844650,276.755951 180.125900,276.262695  z"
   id="path117"
   style="fill:#fccf07;fill-opacity:0.96706587" />
<path
   fill="#D9B95D"
   opacity="1.000000"
   stroke="none"
   d=" M177.079193,274.310913   C177.489273,274.254059 178.051117,274.472809 178.787872,274.949860   C178.385498,275.000977 177.808243,274.793762 177.079193,274.310913  z"
   id="path118"
   style="fill:#fccf07;fill-opacity:0.96706587" />
<path
   fill="#D9B95D"
   opacity="1.000000"
   stroke="none"
   d=" M173.975296,272.402649   C174.398300,272.338135 174.981277,272.551208 175.740265,273.035889   C175.322586,273.098358 174.728943,272.889313 173.975296,272.402649  z"
   id="path119"
   style="fill:#fccf07;fill-opacity:0.96706587" />
<path
   fill="#D9B95D"
   opacity="1.000000"
   stroke="none"
   d=" M172.087738,271.305511   C172.493973,271.251862 173.064743,271.461487 173.801620,271.942261   C173.395920,271.998505 172.824112,271.783630 172.087738,271.305511  z"
   id="path120"
   style="fill:#fccf07;fill-opacity:0.96706587" />
<path
   fill="#D9B95D"
   opacity="1.000000"
   stroke="none"
   d=" M170.134140,270.257446   C170.517899,270.200195 171.079468,270.394623 171.824524,270.835663   C171.442642,270.891235 170.877289,270.700165 170.134140,270.257446  z"
   id="path121"
   style="fill:#fccf07;fill-opacity:0.96706587" />
<path
   fill="#D9B95D"
   opacity="1.000000"
   stroke="none"
   d=" M166.923538,268.485413   C167.348297,268.407898 167.944748,268.603638 168.729584,269.066833   C168.310410,269.142426 167.702805,268.950531 166.923538,268.485413  z"
   id="path122"
   style="fill:#fccf07;fill-opacity:0.96706587" />
<path
   fill="#D9B95D"
   opacity="1.000000"
   stroke="none"
   d=" M312.013336,218.796814   C311.604675,218.789536 311.026367,218.504944 310.305420,217.916245   C310.723083,217.914597 311.283386,218.217026 312.013336,218.796814  z"
   id="path123"
   style="fill:#fccf07;fill-opacity:0.96706587" />
<path
   fill="#D9B95D"
   opacity="1.000000"
   stroke="none"
   d=" M306.906830,214.728531   C306.493469,214.728821 305.963501,214.448090 305.328491,213.867783   C305.745728,213.861313 306.267944,214.154419 306.906830,214.728531  z"
   id="path124"
   style="fill:#fccf07;fill-opacity:0.96706587" />
<path
   fill="#D9B95D"
   opacity="1.000000"
   stroke="none"
   d=" M213.740967,196.112610   C213.734772,196.512268 213.453186,197.036880 212.875244,197.669800   C212.874435,197.264587 213.169998,196.751083 213.740967,196.112610  z"
   id="path125"
   style="fill:#fccf07;fill-opacity:0.96706587" />
<path
   fill="#D9B95D"
   opacity="1.000000"
   stroke="none"
   d=" M196.351288,213.580109   C196.283463,213.970108 195.922775,214.435654 195.253342,214.938049   C195.315887,214.535172 195.687164,214.095428 196.351288,213.580109  z"
   id="path126"
   style="fill:#fccf07;fill-opacity:0.96706587" />
<path
   fill="#D9B95D"
   opacity="1.000000"
   stroke="none"
   d=" M191.443527,217.621017   C191.348724,218.006226 190.954086,218.457062 190.248749,218.943512   C190.339920,218.548294 190.741806,218.117477 191.443527,217.621017  z"
   id="path127"
   style="fill:#fccf07;fill-opacity:0.96706587" />
<path
   fill="#D9B95D"
   opacity="1.000000"
   stroke="none"
   d=" M218.763184,189.909500   C218.760391,190.333954 218.469391,190.918716 217.865494,191.640106   C217.860046,191.207764 218.167511,190.638779 218.763184,189.909500  z"
   id="path128"
   style="fill:#fccf07;fill-opacity:0.96706587" />
<path
   fill="#D9B95D"
   opacity="1.000000"
   stroke="none"
   d=" M281.248535,187.596359   C280.885223,187.460434 280.471649,187.019348 280.029999,186.267456   C280.400726,186.401489 280.799469,186.846344 281.248535,187.596359  z"
   id="path129"
   style="fill:#fccf07;fill-opacity:0.96706587" />
<path
   fill="#D9B95D"
   opacity="1.000000"
   stroke="none"
   d=" M168.582870,232.677948   C168.403687,233.045441 167.895706,233.417511 167.060669,233.787964   C167.240433,233.418396 167.747253,233.050476 168.582870,232.677948  z"
   id="path130"
   style="fill:#fccf07;fill-opacity:0.96706587" />
<path
   fill="#D9B95D"
   opacity="1.000000"
   stroke="none"
   d=" M170.488464,231.605103   C170.334457,231.978180 169.862259,232.380234 169.062851,232.771210   C169.213852,232.384796 169.692047,232.009445 170.488464,231.605103  z"
   id="path131"
   style="fill:#fccf07;fill-opacity:0.96706587" />
<path
   fill="#D9B95D"
   opacity="1.000000"
   stroke="none"
   d=" M294.023254,202.702026   C293.788483,202.786331 293.499451,202.596313 293.120148,202.156235   C293.342896,202.080002 293.655945,202.253845 294.023254,202.702026  z"
   id="path132"
   style="fill:#fccf07;fill-opacity:0.96706587" />
<path
   fill="#D9B95D"
   opacity="1.000000"
   stroke="none"
   d=" M208.665207,201.961441   C208.728012,202.217468 208.483154,202.525177 207.952515,202.930786   C207.897018,202.690186 208.127289,202.351654 208.665207,201.961441  z"
   id="path133"
   style="fill:#fccf07;fill-opacity:0.96706587" />
<path
   fill="#D9B95D"
   opacity="1.000000"
   stroke="none"
   d=" M202.741928,207.798920   C202.829941,208.015900 202.631393,208.355209 202.167816,208.832336   C202.086960,208.620544 202.271164,208.270905 202.741928,207.798920  z"
   id="path134"
   style="fill:#fccf07;fill-opacity:0.96706587" />
<path
   fill="#D9B95D"
   opacity="1.000000"
   stroke="none"
   d=" M206.728882,203.809692   C206.791779,204.030655 206.560104,204.397552 206.023529,204.898193   C205.957184,204.673172 206.195740,204.314392 206.728882,203.809692  z"
   id="path135"
   style="fill:#fccf07;fill-opacity:0.96706587" />
<path
   fill="#D9B95D"
   opacity="1.000000"
   stroke="none"
   d=" M204.733978,205.853241   C204.790344,206.078812 204.547989,206.433411 203.998810,206.908142   C203.939758,206.679611 204.187500,206.330933 204.733978,205.853241  z"
   id="path136"
   style="fill:#fccf07;fill-opacity:0.96706587" />
<path
   fill="#D9B95D"
   opacity="1.000000"
   stroke="none"
   d=" M297.991028,206.721680   C297.769165,206.803635 297.477112,206.622574 297.095551,206.192596   C297.310974,206.115341 297.615936,206.287018 297.991028,206.721680  z"
   id="path137"
   style="fill:#fccf07;fill-opacity:0.96706587" />
<path
   fill="#D9B95D"
   opacity="1.000000"
   stroke="none"
   d=" M299.013916,207.710632   C298.787079,207.796509 298.497955,207.611755 298.110077,207.183228   C298.324768,207.106308 298.638184,207.273163 299.013916,207.710632  z"
   id="path138"
   style="fill:#fccf07;fill-opacity:0.96706587" />
<path
   fill="#D9B95D"
   opacity="1.000000"
   stroke="none"
   d=" M222.706146,184.661102   C222.803116,184.864731 222.623657,185.247589 222.184586,185.818863   C222.093231,185.618286 222.261490,185.229309 222.706146,184.661102  z"
   id="path139"
   style="fill:#fccf07;fill-opacity:0.96706587" />
<path
   fill="#D9B95D"
   opacity="1.000000"
   stroke="none"
   d=" M212.458466,197.706375   C212.557068,197.943604 212.369980,198.272263 211.919769,198.725098   C211.828705,198.498810 212.000732,198.148300 212.458466,197.706375  z"
   id="path140"
   style="fill:#fccf07;fill-opacity:0.96706587" />
<path
   fill="#D9B95D"
   opacity="1.000000"
   stroke="none"
   d=" M280.005676,185.731720   C279.768097,185.792648 279.498566,185.570007 279.151794,185.091125   C279.374237,185.039307 279.673981,185.243729 280.005676,185.731720  z"
   id="path141"
   style="fill:#fccf07;fill-opacity:0.96706587" />
<path
   fill="#D9B95D"
   opacity="1.000000"
   stroke="none"
   d=" M282.087677,188.693390   C281.858673,188.740845 281.582764,188.496460 281.230377,187.979843   C281.449524,187.938934 281.745148,188.170258 282.087677,188.693390  z"
   id="path142"
   style="fill:#fccf07;fill-opacity:0.96706587" />
<path
   fill="#D9B95D"
   opacity="1.000000"
   stroke="none"
   d=" M217.422882,191.717285   C217.549133,191.947571 217.393234,192.288116 216.996307,192.782806   C216.883759,192.567154 217.012238,192.197342 217.422882,191.717285  z"
   id="path143"
   style="fill:#fccf07;fill-opacity:0.96706587" />
<path
   fill="#D9B95D"
   opacity="1.000000"
   stroke="none"
   d=" M216.603363,192.845139   C216.709671,193.077499 216.533081,193.394913 216.111618,193.841888   C216.017975,193.624374 216.169235,193.277283 216.603363,192.845139  z"
   id="path144"
   style="fill:#fccf07;fill-opacity:0.96706587" />
<path
   fill="#D9B95D"
   opacity="1.000000"
   stroke="none"
   d=" M286.051697,193.701035   C285.815399,193.773727 285.533081,193.560638 285.157227,193.094055   C285.377686,193.032120 285.691711,193.223694 286.051697,193.701035  z"
   id="path145"
   style="fill:#fccf07;fill-opacity:0.96706587" />
<path
   fill="#D9B95D"
   opacity="1.000000"
   stroke="none"
   d=" M215.679688,193.943451   C215.774185,194.169144 215.598206,194.469086 215.180359,194.880341   C215.095383,194.667007 215.252274,194.342361 215.679688,193.943451  z"
   id="path146"
   style="fill:#fccf07;fill-opacity:0.96706587" />
<path
   fill="#D9B95D"
   opacity="1.000000"
   stroke="none"
   d=" M214.722076,195.013504   C214.813385,195.231720 214.643219,195.524399 214.233215,195.918060   C214.149109,195.708679 214.304855,195.398315 214.722076,195.013504  z"
   id="path147"
   style="fill:#fccf07;fill-opacity:0.96706587" />
<path
   fill="#D9B95D"
   opacity="1.000000"
   stroke="none"
   d=" M211.537201,198.770462   C211.638931,199.000275 211.451340,199.325531 211.015778,199.793182   C210.927811,199.579041 211.087860,199.222473 211.537201,198.770462  z"
   id="path148"
   style="fill:#fccf07;fill-opacity:0.96706587" />
<path
   fill="#D9B95D"
   opacity="1.000000"
   stroke="none"
   d=" M291.133331,199.651718   C290.888763,199.720856 290.599670,199.491058 290.210144,198.996964   C290.436096,198.939377 290.762451,199.146088 291.133331,199.651718  z"
   id="path149"
   style="fill:#fccf07;fill-opacity:0.96706587" />
<path
   fill="#D9B95D"
   opacity="1.000000"
   stroke="none"
   d=" M210.612762,199.843826   C210.707596,200.075180 210.518768,200.389297 210.074951,200.819092   C209.989670,200.598724 210.159378,200.262650 210.612762,199.843826  z"
   id="path150"
   style="fill:#fccf07;fill-opacity:0.96706587" />
<path
   fill="#D9B95D"
   opacity="1.000000"
   stroke="none"
   d=" M292.097290,200.671722   C291.865234,200.748810 291.568207,200.540939 291.169189,200.075134   C291.388885,200.007050 291.710602,200.196915 292.097290,200.671722  z"
   id="path151"
   style="fill:#fccf07;fill-opacity:0.96706587" />
<path
   fill="#D9B95D"
   opacity="1.000000"
   stroke="none"
   d=" M209.633331,200.878632   C209.740936,201.123215 209.561325,201.427124 209.139587,201.849182   C209.047012,201.624207 209.196579,201.281097 209.633331,200.878632  z"
   id="path152"
   style="fill:#fccf07;fill-opacity:0.96706587" />
<path
   fill="#D9B95D"
   opacity="1.000000"
   stroke="none"
   d=" M293.046143,201.695862   C292.811798,201.768524 292.532898,201.554535 292.148254,201.094498   C292.362152,201.035385 292.681885,201.222305 293.046143,201.695862  z"
   id="path153"
   style="fill:#fccf07;fill-opacity:0.96706587" />
<path
   fill="#D9B95D"
   opacity="1.000000"
   stroke="none"
   d=" M168.819183,269.459412   C169.031860,269.326935 169.367172,269.456329 169.860046,269.810120   C169.659027,269.930115 169.300430,269.825714 168.819183,269.459412  z"
   id="path154"
   style="fill:#fccf07;fill-opacity:0.96706587" />
<path
   fill="#D9B95D"
   opacity="1.000000"
   stroke="none"
   d=" M187.760803,281.503662   C187.994202,281.404175 188.345123,281.593536 188.843140,282.050232   C188.619598,282.142548 188.248962,281.967529 187.760803,281.503662  z"
   id="path155"
   style="fill:#fccf07;fill-opacity:0.96706587" />
<path
   fill="#D9B95D"
   opacity="1.000000"
   stroke="none"
   d=" M197.481934,212.656250   C197.543777,212.895859 197.319046,213.191315 196.816010,213.556229   C196.756927,213.321152 196.976135,213.016617 197.481934,212.656250  z"
   id="path156"
   style="fill:#fccf07;fill-opacity:0.96706587" />
<path
   fill="#D9B95D"
   opacity="1.000000"
   stroke="none"
   d=" M184.870667,279.375061   C185.086426,279.272064 185.405228,279.441010 185.863953,279.846985   C185.660477,279.938385 185.317093,279.792694 184.870667,279.375061  z"
   id="path157"
   style="fill:#fccf07;fill-opacity:0.96706587" />
<path
   fill="#D9B95D"
   opacity="1.000000"
   stroke="none"
   d=" M181.879166,277.377991   C182.099228,277.263611 182.420151,277.416595 182.877441,277.804504   C182.669205,277.908051 182.324615,277.776703 181.879166,277.377991  z"
   id="path158"
   style="fill:#fccf07;fill-opacity:0.96706587" />
<path
   fill="#D9B95D"
   opacity="1.000000"
   stroke="none"
   d=" M178.889877,275.373444   C179.112503,275.257599 179.429382,275.411011 179.880798,275.797668   C179.671600,275.901489 179.327866,275.772125 178.889877,275.373444  z"
   id="path159"
   style="fill:#fccf07;fill-opacity:0.96706587" />
<path
   fill="#D9B95D"
   opacity="1.000000"
   stroke="none"
   d=" M194.715881,214.991943   C194.784256,215.219559 194.577209,215.498611 194.117706,215.862808   C194.056992,215.646423 194.248718,215.344910 194.715881,214.991943  z"
   id="path160"
   style="fill:#fccf07;fill-opacity:0.96706587" />
<path
   fill="#D9B95D"
   opacity="1.000000"
   stroke="none"
   d=" M175.821899,273.451904   C176.045288,273.323883 176.377350,273.467346 176.855896,273.845276   C176.645096,273.960999 176.287842,273.842224 175.821899,273.451904  z"
   id="path161"
   style="fill:#fccf07;fill-opacity:0.96706587" />
<path
   fill="#D9B95D"
   opacity="1.000000"
   stroke="none"
   d=" M308.024109,215.712067   C307.814789,215.798279 307.517700,215.623993 307.102600,215.214630   C307.301819,215.136887 307.619110,215.294220 308.024109,215.712067  z"
   id="path162"
   style="fill:#fccf07;fill-opacity:0.96706587" />
<path
   fill="#D9B95D"
   opacity="1.000000"
   stroke="none"
   d=" M193.675201,215.902725   C193.742554,216.146194 193.517197,216.430130 193.028488,216.802887   C192.970932,216.575546 193.176712,216.259354 193.675201,215.902725  z"
   id="path163"
   style="fill:#fccf07;fill-opacity:0.96706587" />
<path
   fill="#D9B95D"
   opacity="1.000000"
   stroke="none"
   d=" M309.117371,216.645706   C308.893616,216.739914 308.582306,216.557022 308.140625,216.131378   C308.350098,216.048615 308.689941,216.208618 309.117371,216.645706  z"
   id="path164"
   style="fill:#fccf07;fill-opacity:0.96706587" />
<path
   fill="#D9B95D"
   opacity="1.000000"
   stroke="none"
   d=" M192.632919,216.784027   C192.674957,217.031876 192.413223,217.301453 191.870010,217.636230   C191.835403,217.402893 192.082275,217.104340 192.632919,216.784027  z"
   id="path165"
   style="fill:#fccf07;fill-opacity:0.96706587" />
<path
   fill="#D9B95D"
   opacity="1.000000"
   stroke="none"
   d=" M310.229187,217.507050   C310.013000,217.613174 309.676788,217.447769 309.191132,217.038620   C309.397522,216.941772 309.753326,217.088654 310.229187,217.507050  z"
   id="path166"
   style="fill:#fccf07;fill-opacity:0.96706587" />
<path
   fill="#D9B95D"
   opacity="1.000000"
   stroke="none"
   d=" M189.721237,218.981750   C189.768066,219.205612 189.532013,219.473511 189.037750,219.830093   C188.999146,219.621124 189.218750,219.323456 189.721237,218.981750  z"
   id="path167"
   style="fill:#fccf07;fill-opacity:0.96706587" />
<path
   fill="#D9B95D"
   opacity="1.000000"
   stroke="none"
   d=" M188.646179,219.830673   C188.699142,220.064697 188.454514,220.351852 187.932281,220.720917   C187.885971,220.496475 188.117264,220.190140 188.646179,219.830673  z"
   id="path168"
   style="fill:#fccf07;fill-opacity:0.96706587" />
<path
   fill="#D9B95D"
   opacity="1.000000"
   stroke="none"
   d=" M314.392944,220.671204   C314.162231,220.761597 313.755127,220.547363 313.163422,220.034882   C313.391418,219.946625 313.803955,220.156586 314.392944,220.671204  z"
   id="path169"
   style="fill:#fccf07;fill-opacity:0.96706587" />
<path
   fill="#D9B95D"
   opacity="1.000000"
   stroke="none"
   d=" M184.637054,222.752228   C184.660461,222.985550 184.391357,223.243637 183.838013,223.542725   C183.817383,223.314804 184.080978,223.045914 184.637054,222.752228  z"
   id="path170"
   style="fill:#fccf07;fill-opacity:0.96706587" />
<path
   fill="#D9B95D"
   opacity="1.000000"
   stroke="none"
   d=" M179.715942,225.971283   C179.767166,226.216660 179.530029,226.480713 179.027313,226.807098   C178.983688,226.576279 179.205643,226.283127 179.715942,225.971283  z"
   id="path171"
   style="fill:#fccf07;fill-opacity:0.96706587" />
<path
   fill="#D9B95D"
   opacity="1.000000"
   stroke="none"
   d=" M178.654358,226.755157   C178.667496,226.992462 178.393402,227.233139 177.837524,227.489075   C177.826202,227.255737 178.096680,227.007141 178.654358,226.755157  z"
   id="path172"
   style="fill:#fccf07;fill-opacity:0.96706587" />
<path
   fill="#D9B95D"
   opacity="1.000000"
   stroke="none"
   d=" M275.148376,178.696854   C274.917358,178.707718 274.679596,178.424469 274.408783,177.858704   C274.631012,177.851700 274.886353,178.127228 275.148376,178.696854  z"
   id="path173"
   style="fill:#fccf07;fill-opacity:0.96706587" />
<path
   fill="#D9B95D"
   opacity="1.000000"
   stroke="none"
   d=" M200.640106,209.866699   C200.715897,210.110443 200.501419,210.408386 200.021423,210.802063   C199.953903,210.572174 200.151871,210.246521 200.640106,209.866699  z"
   id="path174"
   style="fill:#fccf07;fill-opacity:0.96706587" />
<path
   fill="#D9B95D"
   opacity="1.000000"
   stroke="none"
   d=" M277.098999,181.693787   C276.851501,181.723969 276.606049,181.459076 276.312866,180.920471   C276.543732,180.897430 276.822388,181.148071 277.098999,181.693787  z"
   id="path175"
   style="fill:#fccf07;fill-opacity:0.96706587" />
<path
   fill="#D9B95D"
   opacity="1.000000"
   stroke="none"
   d=" M201.671219,208.920837   C201.750610,209.169403 201.536682,209.452896 201.067322,209.829468   C201.000565,209.600266 201.189240,209.278000 201.671219,208.920837  z"
   id="path176"
   style="fill:#fccf07;fill-opacity:0.96706587" />
<path
   fill="#D9B95D"
   opacity="1.000000"
   stroke="none"
   d=" M301.072083,209.688568   C300.856842,209.770920 300.559357,209.578583 300.138184,209.146790   C300.339600,209.076187 300.664734,209.245041 301.072083,209.688568  z"
   id="path177"
   style="fill:#fccf07;fill-opacity:0.96706587" />
<path
   fill="#D9B95D"
   opacity="1.000000"
   stroke="none"
   d=" M300.028198,208.703979   C299.802246,208.788437 299.509521,208.602203 299.116882,208.169708   C299.331757,208.093399 299.646576,208.263351 300.028198,208.703979  z"
   id="path178"
   style="fill:#fccf07;fill-opacity:0.96706587" />
<path
   fill="#D9B95D"
   opacity="1.000000"
   stroke="none"
   d=" M302.114380,210.654510   C301.889435,210.737991 301.580536,210.542007 301.151001,210.093628   C301.363708,210.019165 301.697052,210.197113 302.114380,210.654510  z"
   id="path179"
   style="fill:#fccf07;fill-opacity:0.96706587" />
<path
   fill="#D9B95D"
   opacity="1.000000"
   stroke="none"
   d=" M199.627991,210.809555   C199.690338,211.054474 199.449524,211.344452 198.937500,211.733490   C198.885803,211.506577 199.105316,211.180588 199.627991,210.809555  z"
   id="path180"
   style="fill:#fccf07;fill-opacity:0.96706587" />
<path
   fill="#D9B95D"
   opacity="1.000000"
   stroke="none"
   d=" M303.169189,211.609894   C302.933594,211.702454 302.617340,211.506088 302.176880,211.053543   C302.397980,210.971909 302.743286,211.146439 303.169189,211.609894  z"
   id="path181"
   style="fill:#fccf07;fill-opacity:0.96706587" />
<path
   fill="#D9B95D"
   opacity="1.000000"
   stroke="none"
   d=" M198.547455,211.733734   C198.612640,211.967163 198.385941,212.271057 197.882263,212.666397   C197.822052,212.439957 198.038803,212.122070 198.547455,211.733734  z"
   id="path182"
   style="fill:#fccf07;fill-opacity:0.96706587" />
</svg>
